<svg version="1.2" xmlns="http://www.w3.org/2000/svg" viewBox="0 0 1280 3630" width="1280" height="3630"><defs><clipPath clipPathUnits="userSpaceOnUse" id="cp1"><path d="m0 0h1280v3630h-1280z"/></clipPath></defs><style>.a{fill:#bcdfa6}.b{fill:#572300}.c{fill:#008000}</style><g clip-path="url(#cp1)"><path class="a" d="m0 0h1280v3630h-1280z"/><path class="b" d="m1.3 3392l31.3 6.7-42.3 197.5-31.3-6.7z"/><path class="c" d="m-41.6 3097.4c30.4-6.6 52.9 18.8 50.2 56.7-2.7 38-29.4 74-59.9 80.6-30.4 6.5-52.9-18.8-50.2-56.8 2.7-37.9 29.4-73.9 59.9-80.5z"/><path class="c" d="m-17.9 3132.8c30.4-6.6 52.9 18.7 50.2 56.7-2.7 37.9-29.5 73.9-59.9 80.5-30.5 6.6-52.9-18.8-50.2-56.7 2.6-38 29.4-74 59.9-80.5z"/><path class="c" d="m-39.4 3204.5c30.4-6.6 52.8 18.8 50.2 56.7-2.7 38-29.5 74-59.9 80.5-30.5 6.6-52.9-18.7-50.2-56.7 2.6-37.9 29.4-73.9 59.9-80.5z"/><path class="c" d="m-54.1 3203.9c-30.5 7.5-53.6-16.9-51.6-54.7 2-37.8 28.2-74.4 58.7-82 30.5-7.5 53.6 16.9 51.6 54.7-2 37.8-28.2 74.4-58.7 82z"/><path class="c" d="m-50 3154.9c30.5-6.6 52.9 18.7 50.3 56.7-2.7 37.9-29.5 73.9-59.9 80.5-30.5 6.6-52.9-18.8-50.3-56.7 2.7-38 29.5-74 59.9-80.5z"/><path class="c" d="m1.3 3054c30.4-6.6 52.9 18.8 50.2 56.7-2.7 38-29.5 74-59.9 80.6-30.4 6.5-52.9-18.8-50.2-56.8 2.7-37.9 29.4-73.9 59.9-80.5z"/><path class="c" d="m25 3089.4c30.4-6.6 52.9 18.7 50.2 56.7-2.7 37.9-29.5 73.9-59.9 80.5-30.5 6.6-52.9-18.8-50.2-56.7 2.6-38 29.4-74 59.9-80.5z"/><path class="c" d="m3.4 3161.1c30.5-6.6 52.9 18.8 50.3 56.7-2.7 38-29.5 74-59.9 80.5-30.5 6.6-52.9-18.7-50.2-56.7 2.6-37.9 29.4-73.9 59.8-80.5z"/><path class="c" d="m-11.2 3160.5c-30.5 7.6-53.6-16.9-51.6-54.7 1.9-37.7 28.2-74.4 58.7-82 30.5-7.5 53.6 16.9 51.6 54.7-2 37.8-28.2 74.4-58.7 82z"/><path class="c" d="m-19.5 3177.2c-30.5 7.6-53.6-16.8-51.6-54.6 2-37.8 28.2-74.5 58.7-82 30.5-7.6 53.6 16.8 51.6 54.6-1.9 37.8-28.2 74.5-58.7 82z"/><path class="c" d="m-19.5 3177.2c-30.5 7.6-53.6-16.8-51.6-54.6 2-37.8 28.2-74.5 58.7-82 30.5-7.6 53.6 16.8 51.6 54.6-1.9 37.8-28.2 74.5-58.7 82z"/><path class="c" d="m-19.5 3177.2c-30.5 7.6-53.6-16.8-51.6-54.6 2-37.8 28.2-74.5 58.7-82 30.5-7.6 53.6 16.8 51.6 54.6-1.9 37.8-28.2 74.5-58.7 82z"/><path class="c" d="m-45.4 3207.7c30.4-6.6 52.9 18.8 50.2 56.8-2.7 37.9-29.5 73.9-59.9 80.5-30.5 6.5-52.9-18.8-50.2-56.8 2.6-37.9 29.4-73.9 59.9-80.5z"/><path class="c" d="m-36.9 3191.2c30.5-6.6 52.9 18.7 50.2 56.7-2.6 37.9-29.4 73.9-59.9 80.5-30.4 6.6-52.9-18.8-50.2-56.7 2.7-38 29.5-74 59.9-80.5z"/><path class="c" d="m14.3 3090.3c30.5-6.6 52.9 18.8 50.3 56.7-2.7 38-29.5 74-59.9 80.6-30.5 6.5-52.9-18.8-50.3-56.8 2.7-37.9 29.5-73.9 59.9-80.5z"/><path class="c" d="m38 3125.7c30.5-6.6 52.9 18.7 50.2 56.7-2.6 37.9-29.4 73.9-59.9 80.5-30.4 6.6-52.8-18.8-50.2-56.7 2.7-38 29.5-74 59.9-80.5z"/><path class="c" d="m16.5 3197.4c30.5-6.6 52.9 18.8 50.2 56.7-2.6 38-29.4 74-59.9 80.5-30.4 6.6-52.9-18.7-50.2-56.7 2.7-37.9 29.5-73.9 59.9-80.5z"/><path class="c" d="m1.8 3196.8c-30.5 7.5-53.5-16.9-51.6-54.7 2-37.8 28.3-74.4 58.8-82 30.5-7.5 53.5 16.9 51.6 54.7-2 37.8-28.2 74.4-58.8 82z"/><path class="c" d="m-6.4 3213.5c-30.5 7.6-53.6-16.8-51.6-54.6 1.9-37.8 28.2-74.5 58.7-82 30.5-7.6 53.6 16.8 51.6 54.6-2 37.8-28.2 74.5-58.7 82z"/><path class="c" d="m-6.4 3213.5c-30.5 7.6-53.6-16.8-51.6-54.6 1.9-37.8 28.2-74.5 58.7-82 30.5-7.6 53.6 16.8 51.6 54.6-2 37.8-28.2 74.5-58.7 82z"/><path class="c" d="m-6.4 3213.5c-30.5 7.6-53.6-16.8-51.6-54.6 1.9-37.8 28.2-74.5 58.7-82 30.5-7.6 53.6 16.8 51.6 54.6-2 37.8-28.2 74.5-58.7 82z"/><path class="c" d="m-56.1 3315.4c-30.5 7.6-53.5-16.8-51.6-54.6 2-37.8 28.3-74.5 58.8-82 30.5-7.6 53.5 16.8 51.6 54.6-2 37.8-28.3 74.5-58.8 82z"/><path class="c" d="m-60.3 3209.2c-30.5 7.5-53.6-16.9-51.6-54.7 2-37.8 28.2-74.4 58.7-82 30.6-7.6 53.6 16.9 51.6 54.7-1.9 37.7-28.2 74.4-58.7 82z"/><path class="c" d="m-40.5 2983c30.4-6.6 52.9 18.8 50.2 56.7-2.7 38-29.4 73.9-59.9 80.5-30.4 6.6-52.9-18.8-50.2-56.7 2.7-38 29.4-74 59.9-80.5z"/><path class="c" d="m-32 2966.4c30.5-6.6 52.9 18.8 50.2 56.7-2.6 38-29.4 74-59.9 80.6-30.4 6.5-52.8-18.8-50.2-56.8 2.7-37.9 29.5-73.9 59.9-80.5z"/><path class="c" d="m19.3 2865.6c30.4-6.6 52.9 18.8 50.2 56.7-2.7 38-29.5 73.9-59.9 80.5-30.5 6.6-52.9-18.8-50.2-56.7 2.6-38 29.4-74 59.9-80.5z"/><path class="c" d="m42.9 2900.9c30.5-6.6 52.9 18.8 50.3 56.7-2.7 38-29.5 74-59.9 80.6-30.5 6.5-52.9-18.8-50.3-56.8 2.7-37.9 29.5-73.9 59.9-80.5z"/><path class="c" d="m21.4 2972.6c30.5-6.5 52.9 18.8 50.3 56.8-2.7 37.9-29.5 73.9-59.9 80.5-30.5 6.6-52.9-18.8-50.3-56.7 2.7-38 29.5-74 59.9-80.6z"/><path class="c" d="m6.8 2972.1c-30.5 7.5-53.6-16.9-51.6-54.7 1.9-37.8 28.2-74.4 58.7-82 30.5-7.6 53.6 16.9 51.6 54.7-2 37.7-28.2 74.4-58.7 82z"/><path class="c" d="m-1.5 2988.8c-30.5 7.5-53.6-16.9-51.6-54.7 2-37.8 28.2-74.4 58.7-82 30.5-7.5 53.6 16.9 51.6 54.7-2 37.8-28.2 74.4-58.7 82z"/><path class="c" d="m-1.5 2988.8c-30.5 7.5-53.6-16.9-51.6-54.7 2-37.8 28.2-74.4 58.7-82 30.5-7.5 53.6 16.9 51.6 54.7-2 37.8-28.2 74.4-58.7 82z"/><path class="c" d="m-1.5 2988.8c-30.5 7.5-53.6-16.9-51.6-54.7 2-37.8 28.2-74.4 58.7-82 30.5-7.5 53.6 16.9 51.6 54.7-2 37.8-28.2 74.4-58.7 82z"/><path class="c" d="m-51.1 3090.7c-30.5 7.5-53.6-16.9-51.6-54.7 1.9-37.8 28.2-74.4 58.7-82 30.5-7.5 53.6 16.9 51.6 54.7-2 37.8-28.2 74.4-58.7 82z"/><path class="c" d="m-55.4 2984.4c-30.5 7.6-53.5-16.9-51.6-54.7 2-37.7 28.3-74.4 58.8-82 30.5-7.5 53.5 16.9 51.6 54.7-2 37.8-28.3 74.4-58.8 82z"/><path class="c" d="m-51.5 2991.6c30.4-6.5 52.9 18.8 50.2 56.8-2.7 37.9-29.5 73.9-59.9 80.5-30.4 6.6-52.9-18.8-50.2-56.7 2.7-38 29.4-74 59.9-80.6z"/><path class="c" d="m-27.8 3027c30.4-6.6 52.9 18.7 50.2 56.7-2.7 37.9-29.5 73.9-59.9 80.5-30.5 6.6-52.9-18.8-50.2-56.7 2.6-38 29.4-74 59.9-80.5z"/><path class="c" d="m-49.4 3098.7c30.5-6.6 52.9 18.8 50.3 56.7-2.7 38-29.5 74-59.9 80.5-30.5 6.6-52.9-18.7-50.2-56.7 2.6-37.9 29.4-73.9 59.8-80.5z"/><path class="c" d="m19.3 3004.2c30.4-6.5 52.9 18.8 50.2 56.8-2.7 37.9-29.4 73.9-59.9 80.5-30.4 6.6-52.9-18.8-50.2-56.7 2.7-38 29.5-74 59.9-80.6z"/><path class="c" d="m27.8 2987.7c30.5-6.6 52.9 18.8 50.3 56.7-2.7 38-29.5 73.9-59.9 80.5-30.5 6.6-52.9-18.8-50.3-56.7 2.7-38 29.5-74 59.9-80.5z"/><path class="c" d="m79.1 2886.8c30.4-6.5 52.9 18.8 50.2 56.8-2.7 37.9-29.5 73.9-59.9 80.5-30.5 6.6-52.9-18.8-50.2-56.7 2.7-38 29.4-74 59.9-80.6z"/><path class="c" d="m102.8 2922.2c30.4-6.6 52.9 18.7 50.2 56.7-2.7 37.9-29.5 73.9-59.9 80.5-30.5 6.6-52.9-18.8-50.2-56.7 2.6-38 29.4-74 59.9-80.5z"/><path class="c" d="m81.2 2993.9c30.5-6.6 52.9 18.8 50.3 56.7-2.7 38-29.5 74-59.9 80.6-30.5 6.5-52.9-18.8-50.3-56.8 2.7-37.9 29.5-73.9 59.9-80.5z"/><path class="c" d="m66.6 2993.3c-30.5 7.6-53.6-16.9-51.6-54.7 1.9-37.7 28.2-74.4 58.7-81.9 30.5-7.6 53.6 16.8 51.6 54.6-2 37.8-28.2 74.5-58.7 82z"/><path class="c" d="m58.3 3010.1c-30.5 7.5-53.6-16.9-51.6-54.7 2-37.8 28.2-74.4 58.7-82 30.5-7.6 53.6 16.9 51.6 54.7-1.9 37.7-28.2 74.4-58.7 82z"/><path class="c" d="m58.3 3010.1c-30.5 7.5-53.6-16.9-51.6-54.7 2-37.8 28.2-74.4 58.7-82 30.5-7.6 53.6 16.9 51.6 54.7-1.9 37.7-28.2 74.4-58.7 82z"/><path class="c" d="m58.3 3010.1c-30.5 7.5-53.6-16.9-51.6-54.7 2-37.8 28.2-74.4 58.7-82 30.5-7.6 53.6 16.9 51.6 54.7-1.9 37.7-28.2 74.4-58.7 82z"/><path class="c" d="m8.7 3111.9c-30.5 7.6-53.6-16.8-51.6-54.6 1.9-37.8 28.2-74.5 58.7-82 30.5-7.6 53.6 16.9 51.6 54.6-2 37.8-28.2 74.5-58.7 82z"/><path class="c" d="m-15.8 3077.6c-30.5 7.6-53.6-16.8-51.6-54.6 1.9-37.8 28.2-74.5 58.7-82 30.5-7.6 53.6 16.9 51.6 54.6-2 37.8-28.2 74.5-58.7 82z"/><path class="c" d="m4.4 3005.7c-30.5 7.5-53.5-16.9-51.6-54.7 2-37.8 28.3-74.4 58.8-82 30.5-7.5 53.6 16.9 51.6 54.7-2 37.8-28.2 74.4-58.8 82z"/><path class="c" d="m-45.8 3046c30.4-6.5 52.9 18.8 50.2 56.8-2.7 37.9-29.5 73.9-59.9 80.5-30.5 6.6-52.9-18.8-50.2-56.7 2.6-38 29.4-74 59.9-80.6z"/><path class="c" d="m-37.3 3029.5c30.4-6.6 52.9 18.8 50.2 56.7-2.7 38-29.4 74-59.9 80.5-30.4 6.6-52.9-18.7-50.2-56.7 2.7-37.9 29.5-73.9 59.9-80.5z"/><path class="c" d="m13.9 2928.6c30.5-6.5 52.9 18.8 50.3 56.8-2.7 37.9-29.5 73.9-59.9 80.5-30.5 6.6-52.9-18.8-50.3-56.7 2.7-38 29.5-74 59.9-80.6z"/><path class="c" d="m37.6 2964c30.5-6.6 52.9 18.7 50.2 56.7-2.6 37.9-29.4 73.9-59.9 80.5-30.4 6.6-52.9-18.8-50.2-56.7 2.7-38 29.5-74 59.9-80.5z"/><path class="c" d="m16.1 3035.7c30.5-6.6 52.9 18.8 50.2 56.7-2.7 38-29.4 74-59.9 80.6-30.4 6.5-52.9-18.8-50.2-56.8 2.7-37.9 29.5-73.9 59.9-80.5z"/><path class="c" d="m1.4 3035.1c-30.5 7.6-53.5-16.9-51.6-54.7 2-37.7 28.3-74.4 58.8-81.9 30.5-7.6 53.5 16.8 51.6 54.6-2 37.8-28.3 74.5-58.8 82z"/><path class="c" d="m-6.8 3051.9c-30.5 7.5-53.6-16.9-51.6-54.7 1.9-37.8 28.2-74.4 58.7-82 30.5-7.6 53.6 16.9 51.6 54.7-2 37.7-28.2 74.4-58.7 82z"/><path class="c" d="m-6.8 3051.9c-30.5 7.5-53.6-16.9-51.6-54.7 1.9-37.8 28.2-74.4 58.7-82 30.5-7.6 53.6 16.9 51.6 54.7-2 37.7-28.2 74.4-58.7 82z"/><path class="c" d="m-6.8 3051.9c-30.5 7.5-53.6-16.9-51.6-54.7 1.9-37.8 28.2-74.4 58.7-82 30.5-7.6 53.6 16.9 51.6 54.7-2 37.7-28.2 74.4-58.7 82z"/><path class="c" d="m-56.5 3153.8c-30.5 7.5-53.5-16.9-51.6-54.7 2-37.8 28.3-74.4 58.8-82 30.5-7.6 53.5 16.9 51.6 54.7-2 37.7-28.3 74.4-58.8 82z"/><path class="c" d="m-60.7 3047.5c-30.5 7.5-53.6-16.9-51.6-54.7 2-37.8 28.2-74.4 58.7-82 30.5-7.5 53.6 16.9 51.6 54.7-1.9 37.8-28.2 74.4-58.7 82z"/><path class="c" d="m-32.4 3169.4c30.4-6.5 52.9 18.8 50.2 56.8-2.7 37.9-29.5 73.9-59.9 80.5-30.5 6.6-52.9-18.8-50.2-56.7 2.7-38 29.4-74 59.9-80.6z"/><path class="c" d="m-8.7 3204.8c30.4-6.6 52.9 18.8 50.2 56.7-2.7 38-29.5 73.9-59.9 80.5-30.5 6.6-52.9-18.8-50.2-56.7 2.6-38 29.4-74 59.9-80.5z"/><path class="c" d="m-30.3 3276.5c30.5-6.6 52.9 18.8 50.3 56.7-2.7 38-29.5 74-59.9 80.6-30.5 6.5-52.9-18.8-50.3-56.8 2.7-37.9 29.5-73.9 59.9-80.5z"/><path class="c" d="m-44.9 3275.9c-30.5 7.6-53.6-16.9-51.6-54.7 1.9-37.7 28.2-74.4 58.7-81.9 30.5-7.6 53.6 16.8 51.6 54.6-2 37.8-28.2 74.5-58.7 82z"/><path class="c" d="m-53.2 3292.7c-30.5 7.5-53.6-16.9-51.6-54.7 2-37.8 28.2-74.4 58.7-82 30.5-7.6 53.6 16.9 51.6 54.7-1.9 37.7-28.2 74.4-58.7 82z"/><path class="c" d="m-53.2 3292.7c-30.5 7.5-53.6-16.9-51.6-54.7 2-37.8 28.2-74.4 58.7-82 30.5-7.6 53.6 16.9 51.6 54.7-1.9 37.7-28.2 74.4-58.7 82z"/><path class="c" d="m-53.2 3292.7c-30.5 7.5-53.6-16.9-51.6-54.7 2-37.8 28.2-74.4 58.7-82 30.5-7.6 53.6 16.9 51.6 54.7-1.9 37.7-28.2 74.4-58.7 82z"/><path class="c" d="m-49.3 3243.4c30.4-6.5 52.9 18.8 50.2 56.8-2.7 37.9-29.4 73.9-59.9 80.5-30.4 6.6-52.9-18.8-50.2-56.7 2.7-38 29.4-74 59.9-80.6z"/><path class="c" d="m-40.8 3226.9c30.5-6.6 52.9 18.8 50.3 56.7-2.7 38-29.5 74-59.9 80.5-30.5 6.6-52.9-18.7-50.3-56.7 2.7-37.9 29.5-73.9 59.9-80.5z"/><path class="c" d="m10.5 3126c30.4-6.5 52.9 18.8 50.2 56.8-2.7 37.9-29.5 73.9-59.9 80.5-30.5 6.6-52.9-18.8-50.2-56.7 2.6-38 29.4-74 59.9-80.6z"/><path class="c" d="m34.1 3161.4c30.5-6.6 52.9 18.8 50.3 56.7-2.7 38-29.5 73.9-59.9 80.5-30.5 6.6-52.9-18.8-50.2-56.7 2.6-38 29.4-74 59.8-80.5z"/><path class="c" d="m12.6 3233.1c30.5-6.6 52.9 18.8 50.3 56.7-2.7 38-29.5 74-59.9 80.6-30.5 6.5-52.9-18.8-50.3-56.8 2.7-37.9 29.5-73.9 59.9-80.5z"/><path class="c" d="m-2 3232.5c-30.5 7.6-53.6-16.9-51.6-54.6 1.9-37.8 28.2-74.5 58.7-82 30.5-7.6 53.6 16.8 51.6 54.6-2 37.8-28.2 74.5-58.7 82z"/><path class="c" d="m-10.3 3249.3c-30.5 7.5-53.6-16.9-51.6-54.7 2-37.8 28.2-74.4 58.7-82 30.5-7.6 53.6 16.9 51.6 54.7-1.9 37.7-28.2 74.4-58.7 82z"/><path class="c" d="m-10.3 3249.3c-30.5 7.5-53.6-16.9-51.6-54.7 2-37.8 28.2-74.4 58.7-82 30.5-7.6 53.6 16.9 51.6 54.7-1.9 37.7-28.2 74.4-58.7 82z"/><path class="c" d="m-10.3 3249.3c-30.5 7.5-53.6-16.9-51.6-54.7 2-37.8 28.2-74.4 58.7-82 30.5-7.6 53.6 16.9 51.6 54.7-1.9 37.7-28.2 74.4-58.7 82z"/><path class="c" d="m-59.9 3351.2c-30.5 7.5-53.6-16.9-51.6-54.7 1.9-37.8 28.2-74.4 58.7-82 30.5-7.6 53.6 16.9 51.6 54.7-2 37.7-28.2 74.4-58.7 82z"/><path class="c" d="m-36.2 3279.7c30.4-6.5 52.9 18.8 50.2 56.8-2.7 37.9-29.5 73.9-59.9 80.5-30.5 6.6-52.9-18.8-50.2-56.7 2.6-38 29.4-74 59.9-80.6z"/><path class="c" d="m-27.7 3263.2c30.4-6.6 52.9 18.8 50.2 56.7-2.7 38-29.4 74-59.9 80.5-30.4 6.6-52.9-18.7-50.2-56.7 2.7-37.9 29.5-73.9 59.9-80.5z"/><path class="c" d="m23.5 3162.3c30.5-6.5 52.9 18.8 50.3 56.8-2.7 37.9-29.5 73.9-59.9 80.5-30.5 6.6-52.9-18.8-50.3-56.7 2.7-38 29.5-74 59.9-80.6z"/><path class="c" d="m47.2 3197.7c30.5-6.6 52.9 18.8 50.2 56.7-2.6 38-29.4 73.9-59.9 80.5-30.4 6.6-52.9-18.8-50.2-56.7 2.7-38 29.5-74 59.9-80.5z"/><path class="c" d="m25.7 3269.4c30.5-6.6 52.9 18.8 50.2 56.7-2.7 38-29.4 74-59.9 80.6-30.4 6.5-52.9-18.8-50.2-56.8 2.7-37.9 29.5-73.9 59.9-80.5z"/><path class="c" d="m11 3268.8c-30.5 7.6-53.5-16.9-51.6-54.7 2-37.7 28.3-74.4 58.8-81.9 30.5-7.6 53.5 16.8 51.6 54.6-2 37.8-28.3 74.5-58.8 82z"/><path class="c" d="m2.8 3285.6c-30.5 7.5-53.6-16.9-51.6-54.7 1.9-37.8 28.2-74.4 58.7-82 30.5-7.6 53.6 16.9 51.6 54.7-2 37.7-28.2 74.4-58.7 82z"/><path class="c" d="m2.8 3285.6c-30.5 7.5-53.6-16.9-51.6-54.7 1.9-37.8 28.2-74.4 58.7-82 30.5-7.6 53.6 16.9 51.6 54.7-2 37.7-28.2 74.4-58.7 82z"/><path class="c" d="m2.8 3285.6c-30.5 7.5-53.6-16.9-51.6-54.7 1.9-37.8 28.2-74.4 58.7-82 30.5-7.6 53.6 16.9 51.6 54.7-2 37.7-28.2 74.4-58.7 82z"/><path class="c" d="m-46.9 3387.5c-30.5 7.5-53.5-16.9-51.6-54.7 2-37.8 28.2-74.4 58.8-82 30.5-7.6 53.5 16.9 51.6 54.7-2 37.7-28.3 74.4-58.8 82z"/><path class="c" d="m-51.1 3281.2c-30.5 7.5-53.6-16.9-51.6-54.7 2-37.8 28.2-74.4 58.7-82 30.5-7.5 53.6 16.9 51.6 54.7-1.9 37.8-28.2 74.4-58.7 82z"/><path class="c" d="m-31.3 3055c30.4-6.6 52.9 18.8 50.2 56.7-2.7 38-29.5 74-59.9 80.5-30.4 6.6-52.9-18.7-50.2-56.7 2.7-37.9 29.4-73.9 59.9-80.5z"/><path class="c" d="m-22.8 3038.4c30.5-6.5 52.9 18.8 50.2 56.8-2.6 37.9-29.4 73.9-59.9 80.5-30.4 6.6-52.9-18.8-50.2-56.7 2.7-38 29.5-74 59.9-80.6z"/><path class="c" d="m28.5 2937.6c30.4-6.6 52.8 18.8 50.2 56.7-2.7 38-29.5 74-59.9 80.5-30.5 6.6-52.9-18.7-50.2-56.7 2.6-37.9 29.4-73.9 59.9-80.5z"/><path class="c" d="m52.1 2972.9c30.5-6.6 52.9 18.8 50.3 56.8-2.7 37.9-29.5 73.9-59.9 80.5-30.5 6.5-52.9-18.8-50.3-56.8 2.7-37.9 29.5-73.9 59.9-80.5z"/><path class="c" d="m30.6 3044.7c30.5-6.6 52.9 18.7 50.2 56.7-2.6 37.9-29.4 73.9-59.9 80.5-30.4 6.6-52.8-18.8-50.2-56.7 2.7-38 29.5-74 59.9-80.5z"/><path class="c" d="m16 3044.1c-30.6 7.5-53.6-16.9-51.6-54.7 1.9-37.8 28.2-74.4 58.7-82 30.5-7.5 53.6 16.9 51.6 54.7-2 37.8-28.2 74.4-58.7 82z"/><path class="c" d="m7.7 3060.8c-30.5 7.6-53.6-16.9-51.6-54.7 1.9-37.7 28.2-74.4 58.7-81.9 30.5-7.6 53.6 16.8 51.6 54.6-2 37.8-28.2 74.5-58.7 82z"/><path class="c" d="m7.7 3060.8c-30.5 7.6-53.6-16.9-51.6-54.7 1.9-37.7 28.2-74.4 58.7-81.9 30.5-7.6 53.6 16.8 51.6 54.6-2 37.8-28.2 74.5-58.7 82z"/><path class="c" d="m7.7 3060.8c-30.5 7.6-53.6-16.9-51.6-54.7 1.9-37.7 28.2-74.4 58.7-81.9 30.5-7.6 53.6 16.8 51.6 54.6-2 37.8-28.2 74.5-58.7 82z"/><path class="c" d="m-42 3162.7c-30.5 7.6-53.5-16.9-51.6-54.7 2-37.7 28.3-74.4 58.8-82 30.5-7.5 53.5 16.9 51.6 54.7-2 37.8-28.2 74.4-58.8 82z"/><path class="c" d="m-46.2 3056.4c-30.5 7.6-53.5-16.9-51.6-54.6 2-37.8 28.2-74.5 58.8-82 30.5-7.6 53.5 16.8 51.6 54.6-2 37.8-28.3 74.5-58.8 82z"/><path class="c" d="m-42.3 3063.7c30.4-6.6 52.9 18.7 50.2 56.7-2.7 37.9-29.5 73.9-59.9 80.5-30.5 6.6-52.9-18.8-50.2-56.7 2.6-38 29.4-74 59.9-80.5z"/><path class="c" d="m-18.6 3099c30.4-6.6 52.8 18.8 50.2 56.7-2.7 38-29.5 74-59.9 80.5-30.5 6.6-52.9-18.7-50.2-56.7 2.6-37.9 29.4-73.9 59.9-80.5z"/><path class="c" d="m-40.2 3170.7c30.5-6.6 52.9 18.8 50.3 56.8-2.7 37.9-29.5 73.9-59.9 80.5-30.5 6.5-52.9-18.8-50.3-56.8 2.7-37.9 29.5-73.9 59.9-80.5z"/><path class="c" d="m-54.8 3170.1c-30.5 7.6-53.6-16.8-51.6-54.6 1.9-37.8 28.2-74.5 58.7-82 30.5-7.6 53.6 16.8 51.6 54.6-2 37.8-28.2 74.5-58.7 82z"/><path class="c" d="m28.5 3076.3c30.4-6.6 52.9 18.7 50.2 56.7-2.7 37.9-29.4 73.9-59.9 80.5-30.4 6.6-52.9-18.8-50.2-56.7 2.7-38 29.4-74 59.9-80.5z"/><path class="c" d="m37 3059.7c30.5-6.6 52.9 18.8 50.2 56.7-2.6 38-29.4 74-59.8 80.5-30.5 6.6-52.9-18.7-50.3-56.7 2.7-37.9 29.5-73.9 59.9-80.5z"/><path class="c" d="m88.3 2958.9c30.4-6.6 52.9 18.7 50.2 56.7-2.7 37.9-29.5 73.9-59.9 80.5-30.5 6.6-52.9-18.8-50.2-56.7 2.6-38 29.4-74 59.9-80.5z"/><path class="c" d="m111.9 2994.2c30.5-6.6 52.9 18.8 50.3 56.7-2.7 38-29.5 74-59.9 80.5-30.5 6.6-52.9-18.7-50.2-56.7 2.6-37.9 29.4-73.9 59.8-80.5z"/><path class="c" d="m90.4 3065.9c30.5-6.6 52.9 18.8 50.3 56.8-2.7 37.9-29.5 73.9-59.9 80.5-30.5 6.5-52.9-18.8-50.3-56.8 2.7-37.9 29.5-73.9 59.9-80.5z"/><path class="c" d="m75.8 3065.3c-30.5 7.6-53.6-16.8-51.6-54.6 1.9-37.8 28.2-74.5 58.7-82 30.5-7.6 53.6 16.8 51.6 54.6-2 37.8-28.2 74.5-58.7 82z"/><path class="c" d="m67.5 3082.1c-30.5 7.5-53.6-16.9-51.6-54.7 2-37.8 28.2-74.4 58.7-82 30.5-7.5 53.6 16.9 51.6 54.7-2 37.8-28.2 74.4-58.7 82z"/><path class="c" d="m67.5 3082.1c-30.5 7.5-53.6-16.9-51.6-54.7 2-37.8 28.2-74.4 58.7-82 30.5-7.5 53.6 16.9 51.6 54.7-2 37.8-28.2 74.4-58.7 82z"/><path class="c" d="m67.5 3082.1c-30.5 7.5-53.6-16.9-51.6-54.7 2-37.8 28.2-74.4 58.7-82 30.5-7.5 53.6 16.9 51.6 54.7-2 37.8-28.2 74.4-58.7 82z"/><path class="c" d="m17.9 3184c-30.5 7.5-53.6-16.9-51.6-54.7 1.9-37.8 28.2-74.4 58.7-82 30.5-7.6 53.6 16.9 51.6 54.7-2 37.8-28.2 74.4-58.7 82z"/><path class="c" d="m-6.6 3149.7c-30.5 7.5-53.6-16.9-51.6-54.7 1.9-37.8 28.2-74.4 58.7-82 30.5-7.5 53.6 16.9 51.6 54.7-2 37.8-28.2 74.4-58.7 82z"/><path class="c" d="m13.6 3077.7c-30.5 7.5-53.5-16.9-51.6-54.7 2-37.8 28.3-74.4 58.8-82 30.5-7.5 53.5 16.9 51.6 54.7-2 37.8-28.3 74.4-58.8 82z"/><path class="c" d="m-36.7 3118.1c30.5-6.6 52.9 18.7 50.3 56.7-2.7 37.9-29.5 73.9-59.9 80.5-30.5 6.6-52.9-18.8-50.2-56.7 2.6-38 29.4-74 59.8-80.5z"/><path class="c" d="m-28.1 3101.5c30.4-6.6 52.9 18.8 50.2 56.7-2.7 38-29.4 74-59.9 80.6-30.4 6.5-52.9-18.8-50.2-56.8 2.7-37.9 29.4-73.9 59.9-80.5z"/><path class="c" d="m23.1 3000.7c30.5-6.6 52.9 18.7 50.2 56.7-2.6 37.9-29.4 73.9-59.9 80.5-30.4 6.6-52.8-18.8-50.2-56.7 2.7-38 29.5-74 59.9-80.5z"/><path class="c" d="m46.8 3036c30.5-6.6 52.9 18.8 50.2 56.7-2.6 38-29.4 74-59.9 80.5-30.4 6.6-52.9-18.7-50.2-56.7 2.7-37.9 29.5-73.9 59.9-80.5z"/><path class="c" d="m25.3 3107.7c30.4-6.6 52.9 18.8 50.2 56.8-2.7 37.9-29.4 73.9-59.9 80.5-30.4 6.5-52.9-18.8-50.2-56.8 2.7-37.9 29.4-73.9 59.9-80.5z"/><path class="c" d="m10.6 3107.1c-30.5 7.6-53.5-16.8-51.6-54.6 2-37.8 28.2-74.5 58.8-82 30.5-7.6 53.5 16.8 51.6 54.6-2 37.8-28.3 74.5-58.8 82z"/><path class="c" d="m2.3 3123.9c-30.5 7.5-53.5-16.9-51.6-54.7 2-37.8 28.3-74.4 58.8-82 30.5-7.5 53.6 16.9 51.6 54.7-2 37.8-28.2 74.4-58.8 82z"/><path class="c" d="m2.3 3123.9c-30.5 7.5-53.5-16.9-51.6-54.7 2-37.8 28.3-74.4 58.8-82 30.5-7.5 53.6 16.9 51.6 54.7-2 37.8-28.2 74.4-58.8 82z"/><path class="c" d="m2.3 3123.9c-30.5 7.5-53.5-16.9-51.6-54.7 2-37.8 28.3-74.4 58.8-82 30.5-7.5 53.6 16.9 51.6 54.7-2 37.8-28.2 74.4-58.8 82z"/><path class="c" d="m-47.3 3225.8c-30.5 7.5-53.6-16.9-51.6-54.7 2-37.8 28.2-74.4 58.7-82 30.6-7.5 53.6 16.9 51.7 54.7-2 37.8-28.3 74.4-58.8 82z"/><path class="c" d="m-51.5 3119.5c-30.5 7.5-53.6-16.9-51.6-54.7 2-37.8 28.2-74.4 58.7-82 30.5-7.5 53.6 16.9 51.6 54.7-1.9 37.8-28.2 74.4-58.7 82z"/><path class="c" d="m-54.2 3265.2c30.5-6.6 52.9 18.7 50.2 56.7-2.6 37.9-29.4 73.9-59.9 80.5-30.4 6.6-52.9-18.8-50.2-56.7 2.7-38 29.5-74 59.9-80.5z"/><path class="b" d="m1263 517.3l13.6-3.3 25.8 106.9-13.6 3.3z"/><path class="b" d="m1262.8 514l14-1.3 9.8 109.6-14 1.2z"/><path class="b" d="m1262.8 514l28.8-2.6 9.8 109.5-28.8 2.6z"/><path class="b" d="m1272.1 616.9l13.9-2 15.3 109-13.9 1.9z"/><path class="c" d="m1387 223.2c16.1 26.6-0.5 56.1-37.2 66-36.8 9.8-79.5-3.7-95.7-30.3-16.2-26.6 0.5-56.2 37.2-66 36.7-9.9 79.5 3.6 95.7 30.3z"/><path class="c" d="m1405.4 225.8c16.2 26.7-0.5 56.2-37.2 66-36.7 9.9-79.5-3.6-95.7-30.3-16.1-26.6 0.5-56.1 37.2-66 36.8-9.8 79.5 3.7 95.7 30.3z"/><path class="c" d="m1417 278.3c16.1 26.7-0.5 56.2-37.2 66-36.8 9.9-79.5-3.6-95.7-30.3-16.2-26.6 0.5-56.1 37.2-66 36.7-9.8 79.5 3.7 95.7 30.3z"/><path class="c" d="m1281.7 248.3c-17.1-26.3-1.6-56.1 34.8-66.6 36.4-10.5 79.6 2.3 96.7 28.7 17.1 26.4 1.5 56.2-34.8 66.6-36.4 10.5-79.6-2.3-96.7-28.7z"/><path class="c" d="m1306.1 214c-17.1-26.4-1.5-56.2 34.8-66.7 36.4-10.5 79.6 2.4 96.7 28.7 17.1 26.4 1.6 56.2-34.8 66.7-36.4 10.5-79.6-2.4-96.7-28.7z"/><path class="c" d="m1442 249.5c16.2 26.7-0.5 56.2-37.2 66-36.8 9.9-79.5-3.6-95.7-30.3-16.1-26.6 0.5-56.1 37.2-66 36.8-9.8 79.5 3.7 95.7 30.3z"/><path class="c" d="m1412 273.7c16.1 26.7-0.5 56.2-37.3 66-36.7 9.9-79.5-3.6-95.6-30.3-16.2-26.6 0.4-56.1 37.2-66 36.7-9.8 79.5 3.7 95.7 30.3z"/><path class="c" d="m1430.4 276.4c16.2 26.6-0.5 56.1-37.2 66-36.7 9.9-79.5-3.7-95.7-30.3-16.1-26.6 0.5-56.1 37.2-66 36.8-9.9 79.5 3.7 95.7 30.3z"/><path class="c" d="m1442 328.9c16.1 26.6-0.5 56.1-37.2 66-36.8 9.9-79.5-3.7-95.7-30.3-16.2-26.6 0.5-56.1 37.2-66 36.7-9.9 79.5 3.7 95.7 30.3z"/><path class="c" d="m1306.7 298.9c-17.1-26.4-1.6-56.2 34.8-66.6 36.3-10.5 79.6 2.3 96.7 28.7 17.1 26.3 1.5 56.1-34.8 66.6-36.4 10.5-79.6-2.3-96.7-28.7z"/><path class="c" d="m1315 200c16.2 26.6-0.4 56.1-37.2 66-36.7 9.8-79.5-3.7-95.6-30.3-16.2-26.7 0.4-56.2 37.2-66 36.7-9.9 79.5 3.6 95.6 30.3z"/><path class="c" d="m1333.5 202.6c16.1 26.6-0.5 56.1-37.2 66-36.8 9.9-79.5-3.7-95.7-30.3-16.2-26.6 0.5-56.1 37.2-66 36.7-9.9 79.5 3.7 95.7 30.3z"/><path class="c" d="m1419.9 252c16.1 26.6-0.5 56.1-37.2 66-36.8 9.9-79.5-3.7-95.7-30.3-16.2-26.6 0.5-56.1 37.2-66 36.7-9.9 79.5 3.7 95.7 30.3z"/><path class="c" d="m1345.1 255.1c16.1 26.7-0.5 56.2-37.3 66-36.7 9.9-79.5-3.6-95.6-30.3-16.2-26.6 0.4-56.1 37.2-66 36.7-9.8 79.5 3.7 95.7 30.3z"/><path class="c" d="m1209.8 225.1c-17.1-26.4-1.6-56.1 34.8-66.6 36.3-10.5 79.5 2.3 96.7 28.7 17.1 26.4 1.5 56.1-34.8 66.6-36.4 10.5-79.6-2.3-96.7-28.7z"/><path class="c" d="m1234.2 190.7c-17.1-26.3-1.6-56.1 34.8-66.6 36.3-10.5 79.6 2.4 96.7 28.7 17.1 26.4 1.5 56.2-34.8 66.7-36.4 10.4-79.6-2.4-96.7-28.8z"/><path class="c" d="m1308.8 186.4c-17.1-26.4-1.5-56.2 34.8-66.6 36.4-10.5 79.6 2.3 96.7 28.7 17.1 26.3 1.6 56.1-34.8 66.6-36.3 10.5-79.5-2.3-96.7-28.7z"/><path class="c" d="m1321.9 255.4c16.2 26.6-0.5 56.1-37.2 66-36.8 9.9-79.5-3.7-95.7-30.3-16.1-26.6 0.5-56.1 37.2-66 36.8-9.9 79.5 3.7 95.7 30.3z"/><path class="c" d="m1340.3 258.1c16.2 26.6-0.4 56.1-37.2 66-36.7 9.8-79.5-3.7-95.6-30.3-16.2-26.7 0.4-56.2 37.2-66 36.7-9.9 79.5 3.6 95.6 30.3z"/><path class="c" d="m1426.7 307.5c16.2 26.6-0.4 56.1-37.2 66-36.7 9.8-79.5-3.7-95.6-30.3-16.2-26.7 0.4-56.2 37.2-66 36.7-9.9 79.5 3.6 95.6 30.3z"/><path class="c" d="m1351.9 310.6c16.2 26.6-0.5 56.1-37.2 66-36.7 9.8-79.5-3.7-95.7-30.3-16.1-26.7 0.5-56.2 37.2-66 36.8-9.9 79.6 3.6 95.7 30.3z"/><path class="c" d="m1216.6 280.5c-17.1-26.3-1.5-56.1 34.8-66.6 36.4-10.5 79.6 2.4 96.7 28.7 17.1 26.4 1.6 56.2-34.8 66.7-36.3 10.4-79.6-2.4-96.7-28.8z"/><path class="c" d="m1241 246.2c-17.1-26.4-1.5-56.2 34.8-66.6 36.4-10.5 79.6 2.3 96.7 28.7 17.1 26.3 1.6 56.1-34.8 66.6-36.3 10.5-79.5-2.4-96.7-28.7z"/><path class="c" d="m1376.9 281.8c16.2 26.6-0.4 56.1-37.2 66-36.7 9.8-79.5-3.7-95.6-30.3-16.2-26.7 0.4-56.2 37.2-66 36.7-9.9 79.5 3.6 95.6 30.3z"/><path class="c" d="m1395.4 284.4c16.1 26.6-0.5 56.1-37.2 66-36.8 9.9-79.5-3.7-95.7-30.3-16.2-26.6 0.5-56.1 37.2-66 36.7-9.9 79.5 3.7 95.7 30.3z"/><path class="c" d="m1406.9 336.9c16.2 26.6-0.4 56.1-37.2 66-36.7 9.9-79.5-3.6-95.6-30.3-16.2-26.6 0.4-56.1 37.2-66 36.7-9.8 79.5 3.7 95.6 30.3z"/><path class="c" d="m1271.7 306.9c-17.1-26.4-1.6-56.1 34.8-66.6 36.3-10.5 79.5 2.3 96.7 28.7 17.1 26.3 1.5 56.1-34.8 66.6-36.4 10.5-79.6-2.3-96.7-28.7z"/><path class="c" d="m1296.1 272.5c-17.1-26.3-1.6-56.1 34.8-66.6 36.3-10.5 79.6 2.4 96.7 28.7 17.1 26.4 1.5 56.2-34.8 66.7-36.4 10.4-79.6-2.4-96.7-28.8z"/><path class="c" d="m1346.9 306c16.2 26.6-0.5 56.1-37.2 66-36.8 9.8-79.5-3.7-95.7-30.3-16.1-26.7 0.5-56.2 37.2-66 36.8-9.9 79.5 3.6 95.7 30.3z"/><path class="c" d="m1365.3 308.6c16.2 26.7-0.4 56.2-37.2 66-36.7 9.9-79.5-3.6-95.6-30.3-16.2-26.6 0.4-56.1 37.2-66 36.7-9.8 79.5 3.7 95.6 30.3z"/><path class="c" d="m1376.9 361.1c16.2 26.7-0.5 56.2-37.2 66-36.7 9.9-79.5-3.6-95.7-30.3-16.1-26.6 0.5-56.1 37.2-66 36.8-9.8 79.5 3.7 95.7 30.3z"/><path class="c" d="m1241.6 331.1c-17.1-26.3-1.5-56.1 34.8-66.6 36.4-10.5 79.6 2.3 96.7 28.7 17.1 26.4 1.6 56.1-34.8 66.6-36.3 10.5-79.6-2.3-96.7-28.7z"/><path class="c" d="m1266 296.8c-17.1-26.4-1.5-56.2 34.8-66.7 36.4-10.5 79.6 2.4 96.7 28.7 17.1 26.4 1.6 56.2-34.8 66.7-36.3 10.4-79.5-2.4-96.7-28.7z"/><path class="c" d="m1418.6 211.5c16.2 26.6-0.4 56.1-37.2 66-36.7 9.8-79.5-3.7-95.6-30.3-16.2-26.7 0.4-56.2 37.2-66 36.7-9.9 79.5 3.6 95.6 30.3z"/><path class="c" d="m1437.1 214.1c16.2 26.7-0.5 56.2-37.2 66-36.8 9.9-79.5-3.6-95.7-30.3-16.2-26.6 0.5-56.1 37.2-66 36.8-9.8 79.5 3.7 95.7 30.3z"/><path class="c" d="m1250 232.2c16.1 26.6-0.5 56.1-37.2 66-36.8 9.9-79.5-3.7-95.7-30.3-16.2-26.6 0.5-56.1 37.2-66 36.7-9.9 79.5 3.7 95.7 30.3z"/><path class="c" d="m1268.4 234.8c16.2 26.7-0.5 56.2-37.2 66-36.7 9.9-79.5-3.6-95.7-30.3-16.1-26.6 0.5-56.1 37.2-66 36.8-9.8 79.6 3.7 95.7 30.3z"/><path class="c" d="m1380.5 250.3c16.1 26.6-0.5 56.1-37.2 66-36.8 9.9-79.5-3.7-95.7-30.3-16.2-26.6 0.5-56.1 37.2-66 36.7-9.9 79.5 3.7 95.7 30.3z"/><path class="c" d="m1354.8 284.2c16.2 26.7-0.5 56.2-37.2 66-36.7 9.9-79.5-3.6-95.7-30.3-16.1-26.6 0.5-56.1 37.2-66 36.8-9.8 79.6 3.7 95.7 30.3z"/><path class="c" d="m1280 287.3c16.2 26.7-0.5 56.2-37.2 66-36.8 9.9-79.5-3.6-95.7-30.3-16.2-26.6 0.5-56.1 37.2-66 36.8-9.8 79.5 3.7 95.7 30.3z"/><path class="c" d="m1275.7 273.3c-17.1-26.4-1.5-56.2 34.8-66.6 36.4-10.5 79.6 2.3 96.7 28.7 17.1 26.3 1.6 56.1-34.8 66.6-36.3 10.5-79.5-2.3-96.7-28.7z"/><path class="c" d="m1257.2 270.9c-17.1-26.3-1.5-56.1 34.8-66.6 36.4-10.5 79.6 2.4 96.7 28.7 17.1 26.4 1.6 56.2-34.8 66.6-36.3 10.5-79.6-2.3-96.7-28.7z"/><path class="c" d="m1257.2 270.9c-17.1-26.3-1.5-56.1 34.8-66.6 36.4-10.5 79.6 2.4 96.7 28.7 17.1 26.4 1.6 56.2-34.8 66.6-36.3 10.5-79.6-2.3-96.7-28.7z"/><path class="c" d="m1257.2 270.9c-17.1-26.3-1.5-56.1 34.8-66.6 36.4-10.5 79.6 2.4 96.7 28.7 17.1 26.4 1.6 56.2-34.8 66.6-36.3 10.5-79.6-2.3-96.7-28.7z"/><path class="c" d="m1144.7 257.3c-17.1-26.3-1.5-56.1 34.8-66.6 36.4-10.5 79.6 2.3 96.7 28.7 17.1 26.4 1.6 56.2-34.8 66.6-36.4 10.5-79.6-2.3-96.7-28.7z"/><path class="c" d="m1169.1 223c-17.1-26.4-1.5-56.2 34.8-66.7 36.4-10.4 79.6 2.4 96.7 28.7 17.1 26.4 1.6 56.2-34.8 66.7-36.4 10.5-79.6-2.4-96.7-28.7z"/><path class="c" d="m1243.8 218.6c-17.1-26.4-1.6-56.1 34.8-66.6 36.3-10.5 79.5 2.3 96.7 28.7 17.1 26.4 1.5 56.1-34.8 66.6-36.4 10.5-79.6-2.3-96.7-28.7z"/><path class="c" d="m1369.9 357.8c-7.3 30.3-39.9 39.5-72.9 20.5-33-18.9-53.8-58.7-46.4-88.9 7.3-30.3 39.9-39.5 72.9-20.6 33 19 53.8 58.7 46.4 89z"/><path class="c" d="m1381.1 372.7c-7.3 30.3-39.9 39.5-72.9 20.5-33-18.9-53.8-58.7-46.4-88.9 7.3-30.3 39.9-39.5 72.9-20.6 33 19 53.7 58.7 46.4 89z"/><path class="c" d="m1407.5 468.7c-7.4 30.3-40 39.4-73 20.5-33-18.9-53.7-58.7-46.4-89 7.4-30.2 40-39.4 73-20.5 33 18.9 53.7 58.7 46.4 89z"/><path class="c" d="m1352.3 418.1c-7.4 30.3-40 39.4-73 20.5-33-18.9-53.7-58.7-46.4-89 7.3-30.2 39.9-39.4 72.9-20.5 33 18.9 53.8 58.7 46.5 89z"/><path class="c" d="m1277.6 301.4c6.5-30.8 38.5-40.9 71.7-22.7 33.1 18.2 54.7 57.8 48.2 88.6-6.5 30.7-38.5 40.9-71.7 22.6-33.1-18.2-54.7-57.8-48.2-88.5z"/><path class="c" d="m1390.3 415.3c-7.3 30.3-39.9 39.5-72.9 20.5-33-18.9-53.8-58.7-46.4-88.9 7.3-30.3 39.9-39.5 72.9-20.5 33 18.9 53.8 58.7 46.4 88.9z"/><path class="c" d="m1401.5 430.2c-7.3 30.3-39.9 39.5-72.9 20.5-33-18.9-53.8-58.7-46.4-88.9 7.3-30.3 39.9-39.5 72.9-20.5 33 18.9 53.7 58.7 46.4 88.9z"/><path class="c" d="m1372.7 475.6c-7.4 30.3-40 39.4-73 20.5-33-18.9-53.7-58.7-46.4-89 7.3-30.2 39.9-39.4 72.9-20.5 33 19 53.8 58.7 46.5 89z"/><path class="c" d="m1352 411.3c-7.4 30.3-40 39.4-73 20.5-33-18.9-53.7-58.7-46.4-89 7.3-30.2 39.9-39.4 72.9-20.5 33 18.9 53.8 58.7 46.5 89z"/><path class="c" d="m1363.2 426.2c-7.4 30.3-40 39.4-73 20.5-33-18.9-53.7-58.7-46.4-89 7.3-30.2 39.9-39.4 72.9-20.5 33 18.9 53.8 58.7 46.5 89z"/><path class="c" d="m1389.5 522.2c-7.3 30.2-39.9 39.4-72.9 20.5-33-19-53.8-58.7-46.4-89 7.3-30.3 39.9-39.4 72.9-20.5 33 18.9 53.7 58.7 46.4 89z"/><path class="c" d="m1334.3 471.6c-7.3 30.2-39.9 39.4-72.9 20.5-33-18.9-53.8-58.7-46.5-89 7.4-30.3 40-39.4 73-20.5 33 18.9 53.7 58.7 46.4 89z"/><path class="c" d="m1259.6 354.8c6.5-30.7 38.5-40.8 71.7-22.6 33.1 18.2 54.7 57.8 48.2 88.5-6.4 30.8-38.5 40.9-71.6 22.7-33.2-18.2-54.8-57.8-48.3-88.6z"/><path class="c" d="m1335.3 290.6c-7.3 30.3-39.9 39.5-72.9 20.5-33-18.9-53.8-58.7-46.4-88.9 7.3-30.3 39.9-39.5 72.9-20.6 33 19 53.8 58.7 46.4 89z"/><path class="c" d="m1346.5 305.5c-7.3 30.3-39.9 39.5-72.9 20.5-33-18.9-53.8-58.7-46.4-88.9 7.3-30.3 39.9-39.5 72.9-20.6 33 19 53.8 58.7 46.4 89z"/><path class="c" d="m1372.9 401.5c-7.3 30.3-39.9 39.4-72.9 20.5-33-18.9-53.8-58.7-46.5-89 7.4-30.2 40-39.4 73-20.5 33 18.9 53.7 58.7 46.4 89z"/><path class="c" d="m1317.7 350.9c-7.4 30.3-40 39.4-73 20.5-33-18.9-53.7-58.7-46.4-89 7.4-30.2 40-39.4 73-20.5 33 18.9 53.7 58.7 46.4 89z"/><path class="c" d="m1243 234.2c6.5-30.8 38.5-40.9 71.7-22.7 33.1 18.2 54.7 57.8 48.2 88.6-6.5 30.7-38.5 40.9-71.7 22.6-33.1-18.2-54.7-57.8-48.2-88.5z"/><path class="c" d="m1284.5 227c6.5-30.7 38.6-40.8 71.7-22.6 33.2 18.2 54.7 57.8 48.3 88.5-6.5 30.8-38.5 40.9-71.7 22.7-33.2-18.2-54.7-57.8-48.3-88.6z"/><path class="c" d="m1301.1 334.7c-7.4 30.3-40 39.5-73 20.6-33-19-53.7-58.7-46.4-89 7.4-30.3 40-39.5 73-20.5 33 18.9 53.7 58.7 46.4 88.9z"/><path class="c" d="m1312.3 349.6c-7.4 30.3-40 39.5-73 20.6-33-19-53.7-58.7-46.4-89 7.4-30.3 40-39.5 73-20.5 33 18.9 53.7 58.7 46.4 88.9z"/><path class="c" d="m1380.8 439.7c-7.4 30.2-40 39.4-73 20.5-33-18.9-53.7-58.7-46.4-89 7.3-30.3 39.9-39.4 72.9-20.5 33 18.9 53.8 58.7 46.5 89z"/><path class="c" d="m1338.6 445.6c-7.3 30.3-39.9 39.5-72.9 20.5-33-18.9-53.7-58.7-46.4-89 7.3-30.2 39.9-39.4 72.9-20.5 33 19 53.8 58.7 46.4 89z"/><path class="c" d="m1283.4 395c-7.3 30.3-39.9 39.5-72.9 20.5-33-18.9-53.8-58.7-46.4-88.9 7.3-30.3 39.9-39.5 72.9-20.6 33 19 53.8 58.7 46.4 89z"/><path class="c" d="m1290.3 382.1c6.5-30.8 38.6-40.9 71.7-22.7 33.2 18.2 54.7 57.8 48.3 88.6-6.5 30.7-38.5 40.9-71.7 22.6-33.2-18.2-54.7-57.8-48.3-88.5z"/><path class="c" d="m1278.9 367.3c6.4-30.7 38.5-40.9 71.6-22.6 33.2 18.2 54.8 57.8 48.3 88.5-6.5 30.8-38.5 40.9-71.7 22.7-33.1-18.2-54.7-57.8-48.2-88.6z"/><path class="c" d="m1278.9 367.3c6.4-30.7 38.5-40.9 71.6-22.6 33.2 18.2 54.8 57.8 48.3 88.5-6.5 30.8-38.5 40.9-71.7 22.7-33.1-18.2-54.7-57.8-48.2-88.6z"/><path class="c" d="m1278.9 367.3c6.4-30.7 38.5-40.9 71.6-22.6 33.2 18.2 54.8 57.8 48.3 88.5-6.5 30.8-38.5 40.9-71.7 22.7-33.1-18.2-54.7-57.8-48.2-88.6z"/><path class="c" d="m1208.7 278.3c6.5-30.8 38.6-40.9 71.7-22.7 33.2 18.2 54.7 57.8 48.3 88.6-6.5 30.7-38.5 40.9-71.7 22.7-33.2-18.3-54.7-57.9-48.3-88.6z"/><path class="c" d="m1250.3 271.2c6.5-30.8 38.5-40.9 71.7-22.7 33.1 18.2 54.7 57.8 48.2 88.6-6.5 30.7-38.5 40.9-71.7 22.6-33.1-18.2-54.7-57.8-48.2-88.5z"/><path class="c" d="m1321.5 392.3c-7.4 30.2-40 39.4-73 20.5-33-19-53.7-58.7-46.4-89 7.4-30.3 40-39.4 73-20.5 33 18.9 53.7 58.7 46.4 89z"/><path class="c" d="m1332.7 407.1c-7.4 30.3-40 39.5-73 20.6-33-19-53.7-58.7-46.4-89 7.4-30.3 40-39.5 73-20.5 33 18.9 53.7 58.7 46.4 88.9z"/><path class="c" d="m1401.2 497.2c-7.4 30.2-40 39.4-73 20.5-33-18.9-53.7-58.7-46.4-89 7.3-30.3 39.9-39.4 72.9-20.5 33 18.9 53.8 58.7 46.5 89z"/><path class="c" d="m1359 503.1c-7.3 30.3-39.9 39.5-72.9 20.5-33-18.9-53.7-58.7-46.4-88.9 7.3-30.3 39.9-39.5 72.9-20.6 33 19 53.8 58.7 46.4 89z"/><path class="c" d="m1303.8 452.5c-7.3 30.3-39.9 39.5-72.9 20.5-33-18.9-53.8-58.7-46.4-88.9 7.3-30.3 39.9-39.5 72.9-20.6 33 19 53.8 58.7 46.4 89z"/><path class="c" d="m1229.1 335.8c6.5-30.8 38.6-40.9 71.7-22.7 33.2 18.3 54.7 57.8 48.3 88.6-6.5 30.8-38.5 40.9-71.7 22.7-33.2-18.3-54.7-57.8-48.3-88.6z"/><path class="c" d="m1270.7 328.7c6.5-30.8 38.5-40.9 71.7-22.7 33.1 18.2 54.7 57.8 48.2 88.6-6.5 30.7-38.5 40.9-71.7 22.6-33.1-18.2-54.7-57.8-48.2-88.5z"/><path class="c" d="m1283.1 388.2c-7.3 30.3-39.9 39.5-72.9 20.5-33-18.9-53.8-58.7-46.4-88.9 7.3-30.3 39.9-39.5 72.9-20.6 33 19 53.7 58.7 46.4 89z"/><path class="c" d="m1294.3 403.1c-7.3 30.3-39.9 39.5-72.9 20.5-33-18.9-53.8-58.7-46.4-88.9 7.3-30.3 39.9-39.5 72.9-20.6 33 19 53.7 58.7 46.4 89z"/><path class="c" d="m1362.8 493.1c-7.3 30.3-39.9 39.5-72.9 20.6-33-19-53.8-58.7-46.5-89 7.4-30.3 40-39.5 73-20.5 33 18.9 53.7 58.7 46.4 88.9z"/><path class="c" d="m1320.7 499.1c-7.4 30.3-40 39.4-73 20.5-33-18.9-53.7-58.7-46.4-89 7.4-30.3 40-39.4 73-20.5 33 18.9 53.7 58.7 46.4 89z"/><path class="c" d="m1265.5 448.5c-7.4 30.3-40 39.4-73 20.5-33-18.9-53.7-58.7-46.4-89 7.3-30.2 39.9-39.4 72.9-20.5 33 18.9 53.8 58.7 46.5 89z"/><path class="c" d="m1272.4 435.5c6.4-30.7 38.5-40.9 71.6-22.6 33.2 18.2 54.8 57.8 48.3 88.5-6.5 30.8-38.5 40.9-71.7 22.7-33.1-18.2-54.7-57.8-48.2-88.6z"/><path class="c" d="m1260.9 420.8c6.5-30.8 38.5-40.9 71.7-22.7 33.1 18.3 54.7 57.8 48.2 88.6-6.4 30.8-38.5 40.9-71.6 22.7-33.2-18.3-54.8-57.8-48.3-88.6z"/><path class="c" d="m1260.9 420.8c6.5-30.8 38.5-40.9 71.7-22.7 33.1 18.3 54.7 57.8 48.2 88.6-6.4 30.8-38.5 40.9-71.6 22.7-33.2-18.3-54.8-57.8-48.3-88.6z"/><path class="c" d="m1260.9 420.8c6.5-30.8 38.5-40.9 71.7-22.7 33.1 18.3 54.7 57.8 48.2 88.6-6.4 30.8-38.5 40.9-71.6 22.7-33.2-18.3-54.8-57.8-48.3-88.6z"/><path class="c" d="m1190.8 331.8c6.4-30.8 38.5-40.9 71.6-22.7 33.2 18.2 54.8 57.8 48.3 88.6-6.5 30.7-38.5 40.9-71.7 22.6-33.1-18.2-54.7-57.8-48.2-88.5z"/><path class="c" d="m1232.3 324.6c6.5-30.7 38.5-40.9 71.7-22.6 33.2 18.2 54.7 57.8 48.3 88.5-6.5 30.8-38.6 40.9-71.7 22.7-33.2-18.2-54.8-57.8-48.3-88.6z"/><path class="c" d="m1288.3 374.2c6.5-30.7 38.5-40.9 71.7-22.6 33.1 18.2 54.7 57.8 48.2 88.5-6.5 30.8-38.5 40.9-71.7 22.7-33.1-18.2-54.7-57.8-48.2-88.6z"/><path class="c" d="m1400.6 371.9c-7.3 30.2-39.9 39.4-72.9 20.5-33-18.9-53.8-58.7-46.4-89 7.3-30.3 39.9-39.4 72.9-20.5 33 18.9 53.8 58.7 46.4 89z"/><path class="c" d="m1411.8 386.8c-7.3 30.2-39.9 39.4-72.9 20.5-33-18.9-53.8-58.7-46.4-89 7.3-30.3 39.9-39.4 72.9-20.5 33 18.9 53.8 58.7 46.4 89z"/><path class="c" d="m1383 432.1c-7.4 30.3-40 39.5-73 20.6-33-19-53.7-58.7-46.4-89 7.4-30.3 40-39.5 73-20.5 33 18.9 53.7 58.7 46.4 88.9z"/><path class="c" d="m1411.2 518.5c-7.3 30.3-39.9 39.4-72.9 20.5-33-18.9-53.8-58.7-46.5-89 7.4-30.2 40-39.4 73-20.5 33 19 53.7 58.7 46.4 89z"/><path class="c" d="m1266.5 267.5c-7.3 30.3-39.9 39.5-72.9 20.6-33-19-53.8-58.7-46.5-89 7.4-30.3 40-39.5 73-20.5 33 18.9 53.7 58.7 46.4 88.9z"/><path class="c" d="m1277.7 282.4c-7.3 30.3-39.9 39.5-72.9 20.6-33-19-53.8-58.7-46.5-89 7.4-30.3 40-39.5 73-20.5 33 18.9 53.7 58.7 46.4 88.9z"/><path class="c" d="m1346.2 372.5c-7.4 30.2-40 39.4-73 20.5-33-18.9-53.7-58.7-46.4-89 7.4-30.3 40-39.4 73-20.5 33 18.9 53.7 58.7 46.4 89z"/><path class="c" d="m1304.1 378.4c-7.4 30.3-40 39.4-73 20.5-33-18.9-53.7-58.7-46.4-89 7.3-30.2 39.9-39.4 72.9-20.5 33 19 53.8 58.7 46.5 89z"/><path class="c" d="m1248.8 327.8c-7.3 30.3-39.9 39.5-72.9 20.5-33-18.9-53.7-58.7-46.4-88.9 7.3-30.3 39.9-39.5 72.9-20.6 33 19 53.8 58.7 46.4 89z"/><path class="c" d="m1255.8 314.9c6.4-30.8 38.5-40.9 71.6-22.7 33.2 18.2 54.8 57.8 48.3 88.6-6.5 30.7-38.5 40.9-71.7 22.6-33.2-18.2-54.7-57.8-48.2-88.5z"/><path class="c" d="m1244.3 300.1c6.5-30.7 38.5-40.9 71.7-22.6 33.1 18.2 54.7 57.8 48.2 88.5-6.5 30.8-38.5 40.9-71.7 22.7-33.1-18.2-54.7-57.8-48.2-88.6z"/><path class="c" d="m1244.3 300.1c6.5-30.7 38.5-40.9 71.7-22.6 33.1 18.2 54.7 57.8 48.2 88.5-6.5 30.8-38.5 40.9-71.7 22.7-33.1-18.2-54.7-57.8-48.2-88.6z"/><path class="c" d="m1244.3 300.1c6.5-30.7 38.5-40.9 71.7-22.6 33.1 18.2 54.7 57.8 48.2 88.5-6.5 30.8-38.5 40.9-71.7 22.7-33.1-18.2-54.7-57.8-48.2-88.6z"/><path class="c" d="m1174.2 211.1c6.4-30.8 38.5-40.9 71.6-22.7 33.2 18.2 54.8 57.8 48.3 88.6-6.5 30.7-38.5 40.9-71.7 22.7-33.2-18.3-54.7-57.9-48.2-88.6z"/><path class="c" d="m1215.7 204c6.5-30.8 38.5-40.9 71.7-22.7 33.1 18.2 54.7 57.8 48.2 88.6-6.4 30.7-38.5 40.9-71.6 22.6-33.2-18.2-54.8-57.8-48.3-88.5z"/><path class="c" d="m1271.7 253.6c6.4-30.8 38.5-40.9 71.6-22.7 33.2 18.2 54.8 57.8 48.3 88.6-6.5 30.7-38.5 40.8-71.7 22.6-33.1-18.2-54.7-57.8-48.2-88.5z"/><path class="b" d="m-4 1465h37v127h-37z"/><path class="b" d="m-2.1 1576l35.9 9.3-32 122.9-35.8-9.3z"/><path class="c" d="m-158.2 1360.4c-17.1-26.4-1.6-56.2 34.8-66.7 36.3-10.5 79.5 2.4 96.7 28.7 17.1 26.4 1.5 56.2-34.8 66.7-36.4 10.4-79.6-2.4-96.7-28.7z"/><path class="c" d="m0 1274.7c16.1 26.6-0.5 56.1-37.2 66-36.8 9.8-79.5-3.7-95.7-30.3-16.2-26.7 0.5-56.2 37.2-66 36.7-9.9 79.5 3.6 95.7 30.3z"/><path class="c" d="m18.4 1277.3c16.2 26.6-0.4 56.1-37.2 66-36.7 9.9-79.5-3.7-95.7-30.3-16.1-26.6 0.5-56.1 37.2-66 36.8-9.9 79.6 3.7 95.7 30.3z"/><path class="c" d="m30 1329.8c16.2 26.7-0.5 56.2-37.2 66-36.8 9.9-79.5-3.6-95.7-30.3-16.2-26.6 0.5-56.1 37.2-66 36.8-9.8 79.5 3.7 95.7 30.3z"/><path class="c" d="m-105.3 1299.8c-17.1-26.4-1.5-56.1 34.8-66.6 36.4-10.5 79.6 2.3 96.7 28.7 17.1 26.4 1.6 56.1-34.8 66.6-36.4 10.5-79.6-2.3-96.7-28.7z"/><path class="c" d="m-11.8 1267.1c16.2 26.6-0.5 56.1-37.2 66-36.8 9.9-79.5-3.7-95.7-30.3-16.1-26.6 0.5-56.1 37.2-66 36.8-9.9 79.5 3.7 95.7 30.3z"/><path class="c" d="m-116.5 1290.1c-17.1-26.4-1.6-56.2 34.8-66.7 36.3-10.4 79.6 2.4 96.7 28.8 17.1 26.3 1.5 56.1-34.8 66.6-36.4 10.5-79.6-2.4-96.7-28.7z"/><path class="c" d="m-135 1287.7c-17.2-26.4-1.6-56.1 34.8-66.6 36.3-10.5 79.5 2.3 96.6 28.7 17.2 26.4 1.6 56.1-34.8 66.6-36.3 10.5-79.5-2.3-96.6-28.7z"/><path class="c" d="m-135 1287.7c-17.2-26.4-1.6-56.1 34.8-66.6 36.3-10.5 79.5 2.3 96.6 28.7 17.2 26.4 1.6 56.1-34.8 66.6-36.3 10.5-79.5-2.3-96.6-28.7z"/><path class="c" d="m-135 1287.7c-17.2-26.4-1.6-56.1 34.8-66.6 36.3-10.5 79.5 2.3 96.6 28.7 17.2 26.4 1.6 56.1-34.8 66.6-36.3 10.5-79.5-2.3-96.6-28.7z"/><path class="c" d="m-148.5 1235.4c-17.1-26.4-1.6-56.2 34.8-66.6 36.4-10.5 79.6 2.3 96.7 28.7 17.1 26.3 1.5 56.1-34.8 66.6-36.4 10.5-79.6-2.3-96.7-28.7z"/><path class="c" d="m-0.6 1338.1c16.2 26.7-0.4 56.2-37.2 66-36.7 9.9-79.5-3.6-95.7-30.3-16.1-26.6 0.5-56.1 37.3-66 36.7-9.8 79.5 3.7 95.6 30.3z"/><path class="c" d="m17.9 1340.8c16.1 26.6-0.5 56.1-37.2 66-36.8 9.9-79.5-3.7-95.7-30.3-16.2-26.6 0.5-56.1 37.2-66 36.7-9.9 79.5 3.7 95.7 30.3z"/><path class="c" d="m29.4 1393.3c16.2 26.6-0.4 56.1-37.2 66-36.7 9.9-79.5-3.7-95.6-30.3-16.2-26.6 0.4-56.1 37.2-66 36.7-9.9 79.5 3.7 95.6 30.3z"/><path class="c" d="m-105.8 1363.3c-17.2-26.4-1.6-56.2 34.8-66.6 36.3-10.5 79.5 2.3 96.6 28.7 17.2 26.3 1.6 56.1-34.8 66.6-36.3 10.5-79.5-2.3-96.6-28.7z"/><path class="c" d="m43.5 1342.3c16.1 26.6-0.5 56.1-37.2 66-36.8 9.9-79.5-3.7-95.7-30.3-16.2-26.6 0.5-56.1 37.2-66 36.7-9.9 79.5 3.7 95.7 30.3z"/><path class="c" d="m-142.2 1281c-17.1-26.3-1.6-56.1 34.8-66.6 36.3-10.5 79.5 2.3 96.7 28.7 17.1 26.4 1.5 56.1-34.8 66.6-36.4 10.5-79.6-2.3-96.7-28.7z"/><path class="c" d="m39.8 1358.9c16.1 26.7-0.5 56.2-37.3 66-36.7 9.9-79.5-3.6-95.6-30.3-16.2-26.6 0.4-56.1 37.2-66 36.7-9.8 79.5 3.7 95.7 30.3z"/><path class="c" d="m-145.9 1297.7c-17.2-26.4-1.6-56.2 34.8-66.7 36.3-10.4 79.5 2.4 96.6 28.8 17.2 26.3 1.6 56.1-34.8 66.6-36.3 10.5-79.5-2.4-96.6-28.7z"/><path class="c" d="m39.2 1422.4c16.2 26.6-0.5 56.1-37.2 66-36.7 9.9-79.5-3.7-95.7-30.3-16.1-26.6 0.5-56.1 37.2-66 36.8-9.9 79.5 3.7 95.7 30.3z"/><path class="c" d="m-146.5 1361.2c-17.1-26.4-1.6-56.2 34.8-66.7 36.4-10.5 79.6 2.4 96.7 28.7 17.1 26.4 1.5 56.2-34.8 66.7-36.4 10.4-79.6-2.4-96.7-28.7z"/><path class="c" d="m4.1 1340.6c16.1 26.6-0.5 56.1-37.2 66-36.8 9.9-79.6-3.7-95.7-30.3-16.2-26.6 0.5-56.1 37.2-66 36.7-9.9 79.5 3.7 95.7 30.3z"/><path class="c" d="m-21.6 1374.5c16.2 26.6-0.5 56.1-37.2 66-36.7 9.9-79.5-3.7-95.7-30.3-16.1-26.6 0.5-56.1 37.2-66 36.8-9.9 79.5 3.7 95.7 30.3z"/><path class="c" d="m-100.7 1363.6c-17.1-26.4-1.5-56.2 34.8-66.7 36.4-10.4 79.6 2.4 96.7 28.8 17.1 26.3 1.6 56.1-34.8 66.6-36.3 10.5-79.5-2.4-96.7-28.7z"/><path class="c" d="m-119.2 1361.2c-17.1-26.4-1.5-56.1 34.8-66.6 36.4-10.5 79.6 2.3 96.7 28.7 17.1 26.4 1.6 56.1-34.8 66.6-36.3 10.5-79.6-2.3-96.7-28.7z"/><path class="c" d="m-119.2 1361.2c-17.1-26.4-1.5-56.1 34.8-66.6 36.4-10.5 79.6 2.3 96.7 28.7 17.1 26.4 1.6 56.1-34.8 66.6-36.3 10.5-79.6-2.3-96.7-28.7z"/><path class="c" d="m-119.2 1361.2c-17.1-26.4-1.5-56.1 34.8-66.6 36.4-10.5 79.6 2.3 96.7 28.7 17.1 26.4 1.6 56.1-34.8 66.6-36.3 10.5-79.6-2.3-96.7-28.7z"/><path class="c" d="m-132.6 1308.9c-17.1-26.4-1.6-56.2 34.8-66.6 36.3-10.5 79.5 2.3 96.6 28.7 17.2 26.3 1.6 56.1-34.7 66.6-36.4 10.5-79.6-2.3-96.7-28.7z"/><path class="c" d="m-11.6 1271.5c16.2 26.6-0.4 56.1-37.2 66-36.7 9.9-79.5-3.7-95.7-30.3-16.1-26.6 0.5-56.1 37.2-66 36.8-9.9 79.6 3.7 95.7 30.3z"/><path class="c" d="m0 1324c16.2 26.6-0.5 56.1-37.2 66-36.8 9.9-79.5-3.7-95.7-30.3-16.2-26.6 0.5-56.1 37.2-66 36.8-9.9 79.5 3.7 95.7 30.3z"/><path class="c" d="m-135.3 1294c-17.1-26.4-1.5-56.2 34.8-66.7 36.4-10.4 79.6 2.4 96.7 28.8 17.1 26.3 1.6 56.1-34.8 66.6-36.4 10.5-79.6-2.4-96.7-28.7z"/><path class="c" d="m-110.9 1259.6c-17.1-26.4-1.5-56.1 34.8-66.6 36.4-10.5 79.6 2.3 96.7 28.7 17.1 26.4 1.6 56.1-34.8 66.6-36.3 10.5-79.6-2.3-96.7-28.7z"/><path class="c" d="m-146.5 1284.2c-17.1-26.3-1.6-56.1 34.8-66.6 36.3-10.5 79.6 2.3 96.7 28.7 17.1 26.4 1.5 56.2-34.8 66.6-36.4 10.5-79.6-2.3-96.7-28.7z"/><path class="c" d="m-12.1 1335c16.1 26.6-0.5 56.1-37.2 66-36.8 9.8-79.5-3.7-95.7-30.3-16.2-26.7 0.5-56.2 37.2-66 36.7-9.9 79.5 3.6 95.7 30.3z"/><path class="c" d="m-0.6 1387.5c16.2 26.6-0.4 56.1-37.2 66-36.7 9.8-79.5-3.7-95.6-30.3-16.2-26.7 0.4-56.2 37.2-66 36.7-9.9 79.5 3.6 95.6 30.3z"/><path class="c" d="m-135.8 1357.5c-17.2-26.4-1.6-56.2 34.8-66.7 36.3-10.5 79.5 2.4 96.6 28.7 17.2 26.4 1.6 56.2-34.8 66.7-36.3 10.4-79.5-2.4-96.6-28.7z"/><path class="c" d="m-111.4 1323.1c-17.1-26.4-1.6-56.2 34.8-66.6 36.3-10.5 79.5 2.3 96.7 28.7 17.1 26.3 1.5 56.1-34.8 66.6-36.4 10.5-79.6-2.3-96.7-28.7z"/><path class="c" d="m124.5 1147.9c16.1 26.7-0.5 56.2-37.2 66-36.8 9.9-79.5-3.6-95.7-30.2-16.2-26.7 0.5-56.2 37.2-66 36.7-9.9 79.5 3.6 95.7 30.2z"/><path class="c" d="m19.8 1170.9c-17.2-26.3-1.6-56.1 34.8-66.6 36.3-10.5 79.5 2.3 96.6 28.7 17.1 26.4 1.6 56.2-34.8 66.6-36.3 10.5-79.5-2.3-96.6-28.7z"/><path class="c" d="m1.2 1168.6c-17.1-26.4-1.5-56.2 34.8-66.7 36.4-10.4 79.6 2.4 96.7 28.8 17.1 26.3 1.6 56.1-34.8 66.6-36.3 10.5-79.6-2.4-96.7-28.7z"/><path class="c" d="m1.2 1168.6c-17.1-26.4-1.5-56.2 34.8-66.7 36.4-10.4 79.6 2.4 96.7 28.8 17.1 26.3 1.6 56.1-34.8 66.6-36.3 10.5-79.6-2.4-96.7-28.7z"/><path class="c" d="m1.2 1168.6c-17.1-26.4-1.5-56.2 34.8-66.7 36.4-10.4 79.6 2.4 96.7 28.8 17.1 26.3 1.6 56.1-34.8 66.6-36.3 10.5-79.6-2.4-96.7-28.7z"/><path class="c" d="m-12.2 1116.3c-17.1-26.4-1.6-56.2 34.8-66.7 36.3-10.5 79.5 2.4 96.7 28.7 17.1 26.4 1.5 56.2-34.8 66.7-36.4 10.4-79.6-2.4-96.7-28.7z"/><path class="c" d="m-12.8 1179.7c-17.1-26.3-1.5-56.1 34.8-66.6 36.4-10.5 79.6 2.3 96.7 28.7 17.1 26.4 1.6 56.2-34.8 66.6-36.3 10.5-79.6-2.3-96.7-28.7z"/><path class="c" d="m-41.6 1186.5c-17.1-26.4-1.6-56.1 34.8-66.6 36.4-10.5 79.6 2.3 96.7 28.7 17.1 26.4 1.5 56.1-34.8 66.6-36.4 10.5-79.6-2.3-96.7-28.7z"/><path class="c" d="m39.1 1302.5c16.2 26.7-0.4 56.2-37.2 66-36.7 9.9-79.5-3.6-95.7-30.3-16.1-26.6 0.5-56.1 37.3-66 36.7-9.8 79.5 3.7 95.6 30.3z"/><path class="c" d="m13.5 1336.4c16.1 26.7-0.5 56.2-37.2 66-36.8 9.9-79.5-3.6-95.7-30.2-16.2-26.7 0.5-56.2 37.2-66 36.7-9.9 79.5 3.6 95.7 30.2z"/><path class="c" d="m-97.6 1270.8c-17.1-26.3-1.5-56.1 34.8-66.6 36.4-10.5 79.6 2.3 96.7 28.7 17.1 26.4 1.6 56.2-34.8 66.6-36.3 10.5-79.6-2.3-96.7-28.7z"/><path class="c" d="m35.4 1319.2c16.2 26.6-0.5 56.1-37.2 66-36.7 9.8-79.5-3.7-95.7-30.3-16.1-26.7 0.5-56.2 37.2-66 36.8-9.9 79.5 3.6 95.7 30.3z"/><path class="c" d="m9.8 1353.1c16.1 26.6-0.5 56.1-37.3 66-36.7 9.9-79.5-3.7-95.6-30.3-16.2-26.6 0.4-56.1 37.2-66 36.7-9.9 79.5 3.7 95.7 30.3z"/><path class="c" d="m-87.8 1339.8c-17.1-26.4-1.6-56.1 34.8-66.6 36.3-10.5 79.5 2.3 96.6 28.7 17.2 26.3 1.6 56.1-34.7 66.6-36.4 10.5-79.6-2.3-96.7-28.7z"/><path class="c" d="m-87.8 1339.8c-17.1-26.4-1.6-56.1 34.8-66.6 36.3-10.5 79.5 2.3 96.6 28.7 17.2 26.3 1.6 56.1-34.7 66.6-36.4 10.5-79.6-2.3-96.7-28.7z"/><path class="c" d="m-87.8 1339.8c-17.1-26.4-1.6-56.1 34.8-66.6 36.3-10.5 79.5 2.3 96.6 28.7 17.2 26.3 1.6 56.1-34.7 66.6-36.4 10.5-79.6-2.3-96.7-28.7z"/><path class="c" d="m-101.3 1287.5c-17.1-26.4-1.5-56.2 34.8-66.7 36.4-10.4 79.6 2.4 96.7 28.8 17.1 26.3 1.6 56.1-34.8 66.6-36.4 10.5-79.6-2.4-96.7-28.7z"/><path class="c" d="m34.9 1382.6c16.1 26.7-0.5 56.2-37.3 66-36.7 9.9-79.5-3.6-95.6-30.2-16.2-26.7 0.4-56.2 37.2-66 36.7-9.9 79.5 3.6 95.7 30.2z"/><path class="c" d="m9.2 1416.6c16.2 26.6-0.5 56.1-37.2 66-36.7 9.9-79.5-3.7-95.7-30.3-16.1-26.6 0.5-56.1 37.2-66 36.8-9.9 79.5 3.7 95.7 30.3z"/><path class="c" d="m-80.9 1265.5c-17.1-26.4-1.5-56.2 34.8-66.7 36.4-10.5 79.6 2.4 96.7 28.7 17.1 26.4 1.6 56.2-34.8 66.7-36.3 10.4-79.6-2.4-96.7-28.7z"/><path class="c" d="m-81.4 1328.9c-17.1-26.3-1.6-56.1 34.8-66.6 36.3-10.5 79.5 2.3 96.7 28.7 17.1 26.4 1.5 56.2-34.8 66.6-36.4 10.5-79.6-2.3-96.7-28.7z"/><path class="c" d="m69.1 1308.4c16.2 26.6-0.4 56.1-37.2 66-36.7 9.8-79.5-3.7-95.7-30.3-16.1-26.7 0.5-56.2 37.3-66 36.7-9.9 79.5 3.6 95.6 30.3z"/><path class="c" d="m-54.1 1329c-17.1-26.4-1.6-56.2 34.8-66.6 36.3-10.5 79.6 2.3 96.7 28.7 17.1 26.3 1.5 56.1-34.8 66.6-36.4 10.5-79.6-2.3-96.7-28.7z"/><path class="c" d="m-54.1 1329c-17.1-26.4-1.6-56.2 34.8-66.6 36.3-10.5 79.6 2.3 96.7 28.7 17.1 26.3 1.5 56.1-34.8 66.6-36.4 10.5-79.6-2.3-96.7-28.7z"/><path class="c" d="m-54.1 1329c-17.1-26.4-1.6-56.2 34.8-66.6 36.3-10.5 79.6 2.3 96.7 28.7 17.1 26.3 1.5 56.1-34.8 66.6-36.4 10.5-79.6-2.3-96.7-28.7z"/><path class="c" d="m-67.6 1276.7c-17.1-26.4-1.5-56.2 34.8-66.7 36.4-10.4 79.6 2.4 96.7 28.8 17.1 26.3 1.6 56.1-34.8 66.6-36.3 10.5-79.6-2.4-96.7-28.7z"/><path class="c" d="m65.4 1325c16.2 26.6-0.5 56.1-37.2 66-36.7 9.9-79.5-3.7-95.7-30.3-16.1-26.6 0.5-56.1 37.2-66 36.8-9.9 79.5 3.7 95.7 30.3z"/><path class="c" d="m-39.3 1348c-17.1-26.4-1.6-56.2 34.8-66.6 36.3-10.5 79.6 2.3 96.7 28.7 17.1 26.3 1.5 56.1-34.8 66.6-36.4 10.5-79.6-2.3-96.7-28.7z"/><path class="c" d="m-57.8 1345.6c-17.1-26.3-1.6-56.1 34.8-66.6 36.3-10.5 79.5 2.4 96.6 28.7 17.2 26.4 1.6 56.2-34.7 66.7-36.4 10.4-79.6-2.4-96.7-28.8z"/><path class="c" d="m-57.8 1345.6c-17.1-26.3-1.6-56.1 34.8-66.6 36.3-10.5 79.5 2.4 96.6 28.7 17.2 26.4 1.6 56.2-34.7 66.7-36.4 10.4-79.6-2.4-96.7-28.8z"/><path class="c" d="m-57.8 1345.6c-17.1-26.3-1.6-56.1 34.8-66.6 36.3-10.5 79.5 2.4 96.6 28.7 17.2 26.4 1.6 56.2-34.7 66.7-36.4 10.4-79.6-2.4-96.7-28.8z"/><path class="c" d="m-71.3 1293.3c-17.1-26.4-1.5-56.1 34.8-66.6 36.4-10.5 79.6 2.3 96.7 28.7 17.1 26.4 1.6 56.1-34.8 66.6-36.4 10.5-79.6-2.3-96.7-28.7z"/><path class="c" d="m64.9 1388.5c16.1 26.6-0.5 56.1-37.3 66-36.7 9.9-79.5-3.7-95.6-30.3-16.2-26.6 0.4-56.1 37.2-66 36.7-9.9 79.5 3.7 95.7 30.3z"/><path class="c" d="m-39.9 1411.5c-17.1-26.4-1.5-56.2 34.8-66.7 36.4-10.4 79.6 2.4 96.7 28.8 17.1 26.3 1.6 56.1-34.8 66.6-36.3 10.5-79.6-2.4-96.7-28.7z"/><path class="c" d="m-58.4 1409.1c-17.1-26.3-1.5-56.1 34.8-66.6 36.4-10.5 79.6 2.3 96.7 28.7 17.1 26.4 1.6 56.1-34.8 66.6-36.4 10.5-79.6-2.3-96.7-28.7z"/><path class="c" d="m-58.4 1409.1c-17.1-26.3-1.5-56.1 34.8-66.6 36.4-10.5 79.6 2.3 96.7 28.7 17.1 26.4 1.6 56.1-34.8 66.6-36.4 10.5-79.6-2.3-96.7-28.7z"/><path class="c" d="m-58.4 1409.1c-17.1-26.3-1.5-56.1 34.8-66.6 36.4-10.5 79.6 2.3 96.7 28.7 17.1 26.4 1.6 56.1-34.8 66.6-36.4 10.5-79.6-2.3-96.7-28.7z"/><path class="c" d="m-71.8 1356.8c-17.2-26.4-1.6-56.2 34.8-66.6 36.3-10.5 79.5 2.3 96.6 28.7 17.2 26.3 1.6 56.1-34.8 66.6-36.3 10.5-79.5-2.3-96.6-28.7z"/><path class="c" d="m74.8 1320.9c16.2 26.6-0.5 56.1-37.2 66-36.7 9.9-79.5-3.7-95.7-30.3-16.1-26.6 0.5-56.1 37.2-66 36.8-9.9 79.6 3.7 95.7 30.3z"/><path class="c" d="m74.3 1384.4c16.1 26.6-0.5 56.1-37.2 66-36.8 9.8-79.5-3.7-95.7-30.3-16.2-26.7 0.5-56.2 37.2-66 36.7-9.9 79.5 3.6 95.7 30.3z"/><path class="c" d="m98.8 1181.9c16.2 26.6-0.5 56.1-37.2 66-36.7 9.9-79.5-3.7-95.7-30.3-16.1-26.6 0.5-56.1 37.2-66 36.8-9.9 79.6 3.7 95.7 30.3z"/><path class="c" d="m123.9 1211.4c16.2 26.7-0.4 56.2-37.2 66-36.7 9.9-79.5-3.6-95.7-30.3-16.1-26.6 0.5-56.1 37.2-66 36.8-9.8 79.6 3.7 95.7 30.3z"/><path class="c" d="m98.3 1245.4c16.1 26.6-0.5 56.1-37.2 66-36.8 9.8-79.5-3.7-95.7-30.3-16.2-26.7 0.5-56.2 37.2-66 36.7-9.9 79.5 3.6 95.7 30.3z"/><path class="c" d="m19.2 1234.4c-17.1-26.4-1.6-56.1 34.8-66.6 36.4-10.5 79.6 2.3 96.7 28.7 17.1 26.4 1.5 56.1-34.8 66.6-36.4 10.5-79.6-2.3-96.7-28.7z"/><path class="c" d="m0.7 1232.1c-17.1-26.4-1.6-56.2 34.8-66.7 36.3-10.5 79.6 2.4 96.7 28.7 17.1 26.4 1.5 56.2-34.8 66.7-36.4 10.5-79.6-2.4-96.7-28.7z"/><path class="c" d="m0.7 1232.1c-17.1-26.4-1.6-56.2 34.8-66.7 36.3-10.5 79.6 2.4 96.7 28.7 17.1 26.4 1.5 56.2-34.8 66.7-36.4 10.5-79.6-2.4-96.7-28.7z"/><path class="c" d="m0.7 1232.1c-17.1-26.4-1.6-56.2 34.8-66.7 36.3-10.5 79.6 2.4 96.7 28.7 17.1 26.4 1.5 56.2-34.8 66.7-36.4 10.5-79.6-2.4-96.7-28.7z"/><path class="c" d="m100.5 1286.9c16.1 26.7-0.5 56.2-37.2 66-36.8 9.9-79.5-3.6-95.7-30.2-16.2-26.7 0.5-56.2 37.2-66 36.7-9.9 79.5 3.6 95.7 30.2z"/><path class="c" d="m-4.2 1309.9c-17.2-26.3-1.6-56.1 34.7-66.6 36.4-10.5 79.6 2.3 96.7 28.7 17.1 26.4 1.6 56.2-34.8 66.6-36.3 10.5-79.5-2.3-96.6-28.7z"/><path class="c" d="m-22.8 1307.6c-17.1-26.4-1.5-56.2 34.8-66.7 36.4-10.4 79.6 2.4 96.7 28.8 17.1 26.3 1.6 56.1-34.8 66.6-36.3 10.5-79.6-2.4-96.7-28.7z"/><path class="c" d="m-22.8 1307.6c-17.1-26.4-1.5-56.2 34.8-66.7 36.4-10.4 79.6 2.4 96.7 28.8 17.1 26.3 1.6 56.1-34.8 66.6-36.3 10.5-79.6-2.4-96.7-28.7z"/><path class="c" d="m-22.8 1307.6c-17.1-26.4-1.5-56.2 34.8-66.7 36.4-10.4 79.6 2.4 96.7 28.8 17.1 26.3 1.6 56.1-34.8 66.6-36.3 10.5-79.6-2.4-96.7-28.7z"/><path class="c" d="m-36.2 1255.3c-17.1-26.4-1.6-56.2 34.8-66.7 36.3-10.5 79.5 2.4 96.7 28.7 17.1 26.4 1.5 56.2-34.8 66.7-36.4 10.4-79.6-2.4-96.7-28.7z"/><path class="c" d="m99.9 1350.4c16.2 26.7-0.4 56.2-37.2 66-36.7 9.9-79.5-3.6-95.7-30.3-16.1-26.6 0.5-56.1 37.2-66 36.8-9.8 79.6 3.7 95.7 30.3z"/><path class="c" d="m-4.8 1373.4c-17.1-26.4-1.6-56.1 34.8-66.6 36.4-10.5 79.6 2.3 96.7 28.7 17.1 26.4 1.5 56.1-34.8 66.6-36.4 10.5-79.6-2.3-96.7-28.7z"/><path class="c" d="m-23.3 1371.1c-17.1-26.4-1.6-56.2 34.8-66.7 36.3-10.5 79.6 2.4 96.7 28.7 17.1 26.4 1.5 56.2-34.8 66.7-36.4 10.5-79.6-2.4-96.7-28.7z"/><path class="c" d="m-23.3 1371.1c-17.1-26.4-1.6-56.2 34.8-66.7 36.3-10.5 79.6 2.4 96.7 28.7 17.1 26.4 1.5 56.2-34.8 66.7-36.4 10.5-79.6-2.4-96.7-28.7z"/><path class="c" d="m-23.3 1371.1c-17.1-26.4-1.6-56.2 34.8-66.7 36.3-10.5 79.6 2.4 96.7 28.7 17.1 26.4 1.5 56.2-34.8 66.7-36.4 10.5-79.6-2.4-96.7-28.7z"/><path class="c" d="m-36.8 1318.7c-17.1-26.3-1.5-56.1 34.8-66.6 36.4-10.5 79.6 2.3 96.7 28.7 17.1 26.4 1.6 56.2-34.8 66.6-36.3 10.5-79.6-2.3-96.7-28.7z"/><path class="c" d="m-65.6 1325.5c-17.1-26.4-1.6-56.1 34.8-66.6 36.4-10.5 79.6 2.3 96.7 28.7 17.1 26.4 1.5 56.1-34.8 66.6-36.4 10.5-79.6-2.3-96.7-28.7z"/><path class="c" d="m-84.1 1323.2c-17.1-26.4-1.6-56.2 34.8-66.7 36.3-10.5 79.6 2.4 96.7 28.7 17.1 26.4 1.5 56.2-34.8 66.7-36.4 10.4-79.6-2.4-96.7-28.7z"/><path class="c" d="m-84.1 1323.2c-17.1-26.4-1.6-56.2 34.8-66.7 36.3-10.5 79.6 2.4 96.7 28.7 17.1 26.4 1.5 56.2-34.8 66.7-36.4 10.4-79.6-2.4-96.7-28.7z"/><path class="c" d="m-84.1 1323.2c-17.1-26.4-1.6-56.2 34.8-66.7 36.3-10.5 79.6 2.4 96.7 28.7 17.1 26.4 1.5 56.2-34.8 66.7-36.4 10.4-79.6-2.4-96.7-28.7z"/><path class="c" d="m-69.3 1342.2c-17.1-26.4-1.6-56.2 34.8-66.7 36.3-10.5 79.6 2.4 96.7 28.7 17.1 26.4 1.5 56.2-34.8 66.7-36.4 10.4-79.6-2.4-96.7-28.7z"/><path class="c" d="m-69.9 1405.6c-17.1-26.3-1.5-56.1 34.8-66.6 36.4-10.5 79.6 2.3 96.7 28.7 17.1 26.4 1.6 56.2-34.8 66.6-36.3 10.5-79.6-2.3-96.7-28.7z"/><path class="c" d="m-88.4 1403.3c-17.1-26.4-1.5-56.2 34.8-66.7 36.4-10.4 79.6 2.4 96.7 28.8 17.1 26.3 1.6 56.1-34.8 66.6-36.4 10.5-79.6-2.4-96.7-28.7z"/><path class="c" d="m-88.4 1403.3c-17.1-26.4-1.5-56.2 34.8-66.7 36.4-10.4 79.6 2.4 96.7 28.8 17.1 26.3 1.6 56.1-34.8 66.6-36.4 10.5-79.6-2.4-96.7-28.7z"/><path class="c" d="m-88.4 1403.3c-17.1-26.4-1.5-56.2 34.8-66.7 36.4-10.4 79.6 2.4 96.7 28.8 17.1 26.3 1.6 56.1-34.8 66.6-36.4 10.5-79.6-2.4-96.7-28.7z"/><path class="c" d="m-101.8 1351c-17.2-26.4-1.6-56.2 34.8-66.7 36.3-10.5 79.5 2.4 96.6 28.7 17.2 26.4 1.6 56.2-34.8 66.7-36.3 10.4-79.5-2.4-96.6-28.7z"/><path class="c" d="m-25.9 1334.7c16.1 26.7-0.5 56.2-37.2 66-36.8 9.9-79.6-3.6-95.7-30.2-16.2-26.7 0.5-56.2 37.2-66 36.7-9.9 79.5 3.6 95.7 30.2z"/><path class="c" d="m-130.7 1357.7c-17.1-26.3-1.5-56.1 34.8-66.6 36.4-10.5 79.6 2.3 96.7 28.7 17.1 26.4 1.6 56.2-34.8 66.6-36.3 10.5-79.5-2.3-96.7-28.7z"/><path class="c" d="m-149.2 1355.4c-17.1-26.4-1.5-56.2 34.8-66.7 36.4-10.4 79.6 2.4 96.7 28.8 17.1 26.3 1.6 56.1-34.8 66.6-36.3 10.5-79.6-2.4-96.7-28.7z"/><path class="c" d="m-149.2 1355.4c-17.1-26.4-1.5-56.2 34.8-66.7 36.4-10.4 79.6 2.4 96.7 28.8 17.1 26.3 1.6 56.1-34.8 66.6-36.3 10.5-79.6-2.4-96.7-28.7z"/><path class="c" d="m-149.2 1355.4c-17.1-26.4-1.5-56.2 34.8-66.7 36.4-10.4 79.6 2.4 96.7 28.8 17.1 26.3 1.6 56.1-34.8 66.6-36.3 10.5-79.6-2.4-96.7-28.7z"/><path class="b" d="m1263 2676.9l26.9-23.9 129.3 145.5-26.9 23.9z"/><path class="b" d="m1250.3 2476.4l35.9-2.4 13.6 201.6-36 2.4z"/><path class="b" d="m1250 2291h36v202h-36z"/><path class="c" d="m1323.7 1959.8c-21.6 22.4-54.4 14-73.4-19-19-33-16.9-77.8 4.7-100.3 21.6-22.4 54.4-13.9 73.4 19 18.9 33 16.9 77.8-4.7 100.3z"/><path class="c" d="m1325.9 1978.3c-21.6 22.4-54.4 14-73.4-19-19-33-16.9-77.8 4.7-100.2 21.5-22.5 54.3-14 73.3 18.9 19 33 16.9 77.8-4.6 100.3z"/><path class="c" d="m1339.7 2090.5c-21.5 22.5-54.3 14-73.3-18.9-19-33-16.9-77.8 4.6-100.3 21.6-22.5 54.4-14 73.4 19 19 33 16.9 77.8-4.7 100.2z"/><path class="c" d="m1300.3 2074.5c-21.5 22.4-54.3 14-73.3-19-19-33-16.9-77.8 4.7-100.3 21.5-22.4 54.3-13.9 73.3 19 19 33 16.9 77.8-4.7 100.3z"/><path class="c" d="m1278.1 2003c-21.6 22.4-54.4 14-73.4-19-18.9-33-16.9-77.8 4.7-100.3 21.6-22.4 54.4-13.9 73.4 19 19 33 16.9 77.8-4.7 100.3z"/><path class="c" d="m1290.6 1995.3c21.1-23.4 53.8-16 73.3 16.4 19.5 32.5 18.2 77.5-2.8 100.9-21.1 23.3-53.9 15.9-73.4-16.5-19.5-32.5-18.2-77.5 2.9-100.8z"/><path class="c" d="m1288.1 1976.7c21.1-23.3 53.9-15.9 73.3 16.5 19.5 32.5 18.2 77.5-2.8 100.9-21.1 23.3-53.9 15.9-73.4-16.5-19.5-32.5-18.2-77.5 2.9-100.9z"/><path class="c" d="m1288.1 1976.7c21.1-23.3 53.9-15.9 73.3 16.5 19.5 32.5 18.2 77.5-2.8 100.9-21.1 23.3-53.9 15.9-73.4-16.5-19.5-32.5-18.2-77.5 2.9-100.9z"/><path class="c" d="m1288.1 1976.7c21.1-23.3 53.9-15.9 73.3 16.5 19.5 32.5 18.2 77.5-2.8 100.9-21.1 23.3-53.9 15.9-73.4-16.5-19.5-32.5-18.2-77.5 2.9-100.9z"/><path class="c" d="m1272.3 1864.5c21.1-23.3 53.9-15.9 73.3 16.5 19.5 32.4 18.2 77.5-2.8 100.8-21.1 23.3-53.9 16-73.4-16.5-19.5-32.4-18.2-77.5 2.9-100.8z"/><path class="c" d="m1311.8 1879.3c21.1-23.3 53.8-16 73.3 16.5 19.5 32.4 18.2 77.5-2.8 100.8-21.1 23.3-53.9 15.9-73.4-16.5-19.5-32.4-18.2-77.5 2.9-100.8z"/><path class="c" d="m1312.4 2019.7c-21.6 22.5-54.4 14-73.4-18.9-19-33-16.9-77.8 4.7-100.3 21.6-22.5 54.3-14 73.3 19 19 32.9 16.9 77.8-4.6 100.2z"/><path class="c" d="m1314.5 2038.2c-21.5 22.5-54.3 14-73.3-18.9-19-33-16.9-77.8 4.7-100.3 21.5-22.5 54.3-14 73.3 19 19 33 16.9 77.8-4.7 100.2z"/><path class="c" d="m1328.4 2150.5c-21.6 22.5-54.3 14-73.3-19-19-32.9-16.9-77.8 4.6-100.2 21.6-22.5 54.4-14 73.4 19 19 32.9 16.9 77.7-4.7 100.2z"/><path class="c" d="m1289 2134.4c-21.5 22.5-54.3 14-73.3-18.9-19-33-16.9-77.8 4.6-100.3 21.6-22.5 54.4-14 73.4 19 19 32.9 16.9 77.8-4.7 100.2z"/><path class="c" d="m1266.8 2062.9c-21.6 22.5-54.4 14-73.4-18.9-19-33-16.9-77.8 4.7-100.3 21.6-22.5 54.3-14 73.3 19 19 32.9 16.9 77.8-4.6 100.2z"/><path class="c" d="m1279.3 2055.2c21-23.3 53.8-15.9 73.3 16.5 19.5 32.4 18.2 77.5-2.9 100.8-21 23.3-53.8 16-73.3-16.5-19.5-32.4-18.2-77.5 2.9-100.8z"/><path class="c" d="m1276.8 2036.7c21-23.3 53.8-15.9 73.3 16.5 19.5 32.4 18.2 77.5-2.9 100.8-21 23.3-53.8 16-73.3-16.5-19.5-32.4-18.2-77.5 2.9-100.8z"/><path class="c" d="m1276.8 2036.7c21-23.3 53.8-15.9 73.3 16.5 19.5 32.4 18.2 77.5-2.9 100.8-21 23.3-53.8 16-73.3-16.5-19.5-32.4-18.2-77.5 2.9-100.8z"/><path class="c" d="m1276.8 2036.7c21-23.3 53.8-15.9 73.3 16.5 19.5 32.4 18.2 77.5-2.9 100.8-21 23.3-53.8 16-73.3-16.5-19.5-32.4-18.2-77.5 2.9-100.8z"/><path class="c" d="m1261 1924.5c21.1-23.3 53.8-16 73.3 16.5 19.5 32.4 18.2 77.5-2.8 100.8-21.1 23.3-53.9 15.9-73.4-16.5-19.5-32.4-18.2-77.5 2.9-100.8z"/><path class="c" d="m1300.5 1939.2c21-23.3 53.8-15.9 73.3 16.5 19.5 32.5 18.2 77.5-2.9 100.8-21 23.4-53.8 16-73.3-16.5-19.5-32.4-18.2-77.5 2.9-100.8z"/><path class="c" d="m1281.2 1996.9c-21.5 22.5-54.3 14-73.3-18.9-19-33-16.9-77.8 4.7-100.3 21.5-22.5 54.3-14 73.3 19 19 33 16.9 77.8-4.7 100.2z"/><path class="c" d="m1283.4 2015.4c-21.6 22.5-54.3 14-73.3-18.9-19-33-16.9-77.8 4.6-100.3 21.6-22.5 54.4-14 73.4 19 19 33 16.9 77.8-4.7 100.2z"/><path class="c" d="m1297.3 2127.7c-21.6 22.5-54.4 14-73.4-19-18.9-32.9-16.9-77.8 4.7-100.2 21.6-22.5 54.4-14 73.4 19 19 32.9 16.9 77.7-4.7 100.2z"/><path class="c" d="m1257.9 2111.6c-21.6 22.5-54.3 14-73.3-18.9-19-33-16.9-77.8 4.6-100.3 21.6-22.5 54.4-14 73.4 19 19 33 16.9 77.8-4.7 100.2z"/><path class="c" d="m1235.7 2040.1c-21.6 22.5-54.4 14-73.4-18.9-19-33-16.9-77.8 4.7-100.3 21.5-22.5 54.3-14 73.3 19 19 32.9 16.9 77.8-4.6 100.2z"/><path class="c" d="m1248.1 2032.4c21.1-23.3 53.9-15.9 73.4 16.5 19.5 32.4 18.2 77.5-2.9 100.8-21.1 23.3-53.8 16-73.3-16.5-19.5-32.4-18.2-77.5 2.8-100.8z"/><path class="c" d="m1245.7 2013.9c21-23.3 53.8-15.9 73.3 16.5 19.5 32.4 18.2 77.5-2.9 100.8-21.1 23.3-53.8 16-73.3-16.5-19.5-32.4-18.2-77.5 2.9-100.8z"/><path class="c" d="m1245.7 2013.9c21-23.3 53.8-15.9 73.3 16.5 19.5 32.4 18.2 77.5-2.9 100.8-21.1 23.3-53.8 16-73.3-16.5-19.5-32.4-18.2-77.5 2.9-100.8z"/><path class="c" d="m1245.7 2013.9c21-23.3 53.8-15.9 73.3 16.5 19.5 32.4 18.2 77.5-2.9 100.8-21.1 23.3-53.8 16-73.3-16.5-19.5-32.4-18.2-77.5 2.9-100.8z"/><path class="c" d="m1229.9 1901.7c21-23.3 53.8-16 73.3 16.5 19.5 32.4 18.2 77.5-2.9 100.8-21 23.3-53.8 15.9-73.3-16.5-19.5-32.4-18.2-77.5 2.9-100.8z"/><path class="c" d="m1269.3 1916.4c21.1-23.3 53.9-15.9 73.4 16.5 19.5 32.5 18.2 77.5-2.9 100.8-21.1 23.4-53.8 16-73.3-16.5-19.5-32.4-18.2-77.5 2.8-100.8z"/><path class="c" d="m1292.8 1987.4c21-23.3 53.8-15.9 73.3 16.5 19.5 32.5 18.2 77.5-2.9 100.9-21.1 23.3-53.8 15.9-73.3-16.5-19.5-32.5-18.2-77.5 2.9-100.9z"/><path class="c" d="m1379.4 2300.8c-21.5 22.4-54.3 13.9-73.3-19-19-33-16.9-77.8 4.7-100.3 21.5-22.4 54.3-14 73.3 19 19 33 16.9 77.8-4.7 100.3z"/><path class="c" d="m1357.2 2229.2c-21.6 22.5-54.4 14-73.4-18.9-19-33-16.9-77.8 4.7-100.3 21.6-22.4 54.4-14 73.4 19 18.9 33 16.9 77.8-4.7 100.2z"/><path class="c" d="m1367.7 2156.7c-21.6 22.4-54.4 13.9-73.4-19-19-33-16.9-77.8 4.7-100.3 21.6-22.4 54.4-14 73.4 19 18.9 33 16.9 77.8-4.7 100.3z"/><path class="c" d="m1345.4 2085.1c-21.6 22.5-54.3 14-73.3-18.9-19-33-16.9-77.8 4.6-100.3 21.6-22.4 54.4-14 73.4 19 19 33 16.9 77.8-4.7 100.2z"/><path class="c" d="m1341.3 2201.8c-21.6 22.5-54.4 14-73.4-18.9-18.9-33-16.9-77.8 4.7-100.3 21.6-22.4 54.4-14 73.4 19 19 33 16.9 77.8-4.7 100.2z"/><path class="c" d="m1343.5 2220.4c-21.6 22.4-54.4 13.9-73.4-19-19-33-16.9-77.8 4.7-100.3 21.6-22.4 54.3-14 73.3 19 19 33 16.9 77.8-4.6 100.3z"/><path class="c" d="m1357.3 2332.6c-21.5 22.5-54.3 14-73.3-19-19-32.9-16.9-77.7 4.7-100.2 21.5-22.5 54.3-14 73.3 19 19 32.9 16.9 77.7-4.7 100.2z"/><path class="c" d="m1318 2316.5c-21.6 22.5-54.4 14-73.4-18.9-19-33-16.9-77.8 4.7-100.3 21.5-22.4 54.3-14 73.3 19 19 33 16.9 77.8-4.6 100.2z"/><path class="c" d="m1295.7 2245c-21.6 22.5-54.4 14-73.3-18.9-19-33-17-77.8 4.6-100.3 21.6-22.4 54.4-14 73.4 19 19 33 16.9 77.8-4.7 100.2z"/><path class="c" d="m1308.2 2237.3c21.1-23.3 53.9-15.9 73.3 16.5 19.5 32.5 18.2 77.5-2.8 100.8-21.1 23.4-53.9 16-73.4-16.5-19.5-32.4-18.2-77.5 2.9-100.8z"/><path class="c" d="m1305.7 2218.8c21.1-23.3 53.9-15.9 73.3 16.5 19.5 32.5 18.2 77.5-2.8 100.8-21.1 23.4-53.9 16-73.4-16.5-19.5-32.4-18.2-77.5 2.9-100.8z"/><path class="c" d="m1305.7 2218.8c21.1-23.3 53.9-15.9 73.3 16.5 19.5 32.5 18.2 77.5-2.8 100.8-21.1 23.4-53.9 16-73.4-16.5-19.5-32.4-18.2-77.5 2.9-100.8z"/><path class="c" d="m1305.7 2218.8c21.1-23.3 53.9-15.9 73.3 16.5 19.5 32.5 18.2 77.5-2.8 100.8-21.1 23.4-53.9 16-73.4-16.5-19.5-32.4-18.2-77.5 2.9-100.8z"/><path class="c" d="m1289.9 2106.6c21.1-23.3 53.9-16 73.3 16.5 19.5 32.4 18.2 77.5-2.8 100.8-21.1 23.3-53.9 15.9-73.4-16.5-19.5-32.4-18.2-77.5 2.9-100.8z"/><path class="c" d="m1371.9 2130.8c-21.5 22.4-54.3 14-73.3-19-19-33-16.9-77.8 4.7-100.2 21.5-22.5 54.3-14 73.3 18.9 19 33 16.9 77.8-4.7 100.3z"/><path class="c" d="m1374.1 2149.3c-21.6 22.5-54.3 14-73.3-19-19-33-16.9-77.8 4.6-100.2 21.6-22.5 54.4-14 73.4 18.9 19 33 16.9 77.8-4.7 100.3z"/><path class="c" d="m1348.6 2245.5c-21.6 22.4-54.3 14-73.3-19-19-33-16.9-77.8 4.6-100.2 21.6-22.5 54.4-14 73.4 18.9 19 33 16.9 77.8-4.7 100.3z"/><path class="c" d="m1326.4 2174c-21.6 22.4-54.4 14-73.4-19-19-33-16.9-77.8 4.7-100.2 21.5-22.5 54.3-14 73.3 18.9 19 33 16.9 77.8-4.6 100.3z"/><path class="c" d="m1327.6 1884.3c-21.6 22.5-54.3 14-73.3-19-19-32.9-16.9-77.8 4.6-100.2 21.6-22.5 54.4-14 73.4 19 19 32.9 16.9 77.7-4.7 100.2z"/><path class="c" d="m1329.8 1902.8c-21.6 22.5-54.4 14-73.4-19-18.9-32.9-16.9-77.8 4.7-100.2 21.6-22.5 54.4-14 73.4 19 19 32.9 16.9 77.7-4.7 100.2z"/><path class="c" d="m1343.7 2015.1c-21.6 22.4-54.4 13.9-73.4-19-19-33-16.9-77.8 4.7-100.3 21.6-22.4 54.3-14 73.3 19 19 33 16.9 77.8-4.6 100.3z"/><path class="c" d="m1304.3 1999c-21.6 22.5-54.4 14-73.4-19-19-32.9-16.9-77.8 4.7-100.2 21.6-22.5 54.3-14 73.3 19 19 32.9 16.9 77.7-4.6 100.2z"/><path class="c" d="m1282 1927.5c-21.6 22.5-54.3 14-73.3-19-19-33-16.9-77.8 4.6-100.2 21.6-22.5 54.4-14 73.4 18.9 19 33 16.9 77.8-4.7 100.3z"/><path class="c" d="m1294.5 1919.8c21.1-23.3 53.9-16 73.4 16.5 19.4 32.4 18.2 77.5-2.9 100.8-21.1 23.3-53.9 15.9-73.4-16.5-19.4-32.4-18.2-77.5 2.9-100.8z"/><path class="c" d="m1292 1901.3c21.1-23.3 53.9-16 73.4 16.5 19.5 32.4 18.2 77.5-2.9 100.8-21.1 23.3-53.9 15.9-73.3-16.5-19.5-32.4-18.2-77.5 2.8-100.8z"/><path class="c" d="m1292 1901.3c21.1-23.3 53.9-16 73.4 16.5 19.5 32.4 18.2 77.5-2.9 100.8-21.1 23.3-53.9 15.9-73.3-16.5-19.5-32.4-18.2-77.5 2.8-100.8z"/><path class="c" d="m1292 1901.3c21.1-23.3 53.9-16 73.4 16.5 19.5 32.4 18.2 77.5-2.9 100.8-21.1 23.3-53.9 15.9-73.3-16.5-19.5-32.4-18.2-77.5 2.8-100.8z"/><path class="c" d="m1276.2 1789c21.1-23.3 53.9-15.9 73.4 16.5 19.5 32.5 18.2 77.5-2.9 100.8-21.1 23.4-53.9 16-73.3-16.4-19.5-32.5-18.2-77.5 2.8-100.9z"/><path class="c" d="m1315.7 1803.8c21.1-23.3 53.9-16 73.4 16.5 19.4 32.4 18.2 77.5-2.9 100.8-21.1 23.3-53.9 15.9-73.4-16.5-19.4-32.4-18.2-77.5 2.9-100.8z"/><path class="c" d="m1275.8 1905.2c-21.6 22.5-54.3 14-73.3-19-19-33-16.9-77.8 4.6-100.2 21.6-22.5 54.4-14 73.4 18.9 19 33 16.9 77.8-4.7 100.3z"/><path class="c" d="m1278 1923.7c-21.6 22.5-54.4 14-73.4-19-19-33-16.9-77.8 4.7-100.2 21.6-22.5 54.4-14 73.4 18.9 18.9 33 16.9 77.8-4.7 100.3z"/><path class="c" d="m1291.9 2035.9c-21.6 22.5-54.4 14-73.4-18.9-19-33-16.9-77.8 4.7-100.3 21.6-22.4 54.3-14 73.3 19 19 33 16.9 77.8-4.6 100.2z"/><path class="c" d="m1252.5 2019.9c-21.6 22.5-54.4 14-73.4-19-19-33-16.9-77.8 4.7-100.2 21.6-22.5 54.3-14 73.3 18.9 19 33 16.9 77.8-4.6 100.3z"/><path class="c" d="m1230.2 1948.4c-21.6 22.4-54.3 14-73.3-19-19-33-16.9-77.8 4.6-100.2 21.6-22.5 54.4-14 73.4 18.9 19 33 16.9 77.8-4.7 100.3z"/><path class="c" d="m1242.7 1940.7c21.1-23.3 53.9-16 73.3 16.5 19.5 32.4 18.2 77.5-2.8 100.8-21.1 23.3-53.9 15.9-73.4-16.5-19.5-32.4-18.2-77.5 2.9-100.8z"/><path class="c" d="m1240.2 1922.2c21.1-23.4 53.9-16 73.4 16.4 19.4 32.5 18.2 77.5-2.9 100.9-21.1 23.3-53.9 15.9-73.4-16.5-19.4-32.5-18.2-77.5 2.9-100.8z"/><path class="c" d="m1240.2 1922.2c21.1-23.4 53.9-16 73.4 16.4 19.4 32.5 18.2 77.5-2.9 100.9-21.1 23.3-53.9 15.9-73.4-16.5-19.4-32.5-18.2-77.5 2.9-100.8z"/><path class="c" d="m1240.2 1922.2c21.1-23.4 53.9-16 73.4 16.4 19.4 32.5 18.2 77.5-2.9 100.9-21.1 23.3-53.9 15.9-73.4-16.5-19.4-32.5-18.2-77.5 2.9-100.8z"/><path class="c" d="m1224.4 1809.9c21.1-23.3 53.9-15.9 73.4 16.5 19.5 32.5 18.2 77.5-2.9 100.8-21.1 23.4-53.9 16-73.3-16.5-19.5-32.4-18.2-77.5 2.8-100.8z"/><path class="c" d="m1263.9 1824.7c21.1-23.3 53.9-16 73.4 16.5 19.4 32.4 18.2 77.5-2.9 100.8-21.1 23.3-53.9 15.9-73.4-16.5-19.4-32.4-18.2-77.5 2.9-100.8z"/><path class="c" d="m1287.3 1895.7c21.1-23.3 53.9-15.9 73.4 16.5 19.5 32.4 18.2 77.5-2.9 100.8-21.1 23.3-53.9 16-73.3-16.5-19.5-32.4-18.2-77.5 2.8-100.8z"/><path class="c" d="m1264.5 1965.1c-21.6 22.5-54.4 14-73.4-18.9-18.9-33-16.9-77.8 4.7-100.3 21.6-22.4 54.4-14 73.4 19 19 33 16.9 77.8-4.7 100.2z"/><path class="c" d="m1266.7 1983.6c-21.6 22.5-54.4 14-73.4-18.9-19-33-16.9-77.8 4.7-100.3 21.6-22.4 54.3-14 73.3 19 19 33 16.9 77.8-4.6 100.2z"/><path class="c" d="m1280.5 2095.9c-21.5 22.5-54.3 14-73.3-19-19-32.9-16.9-77.7 4.7-100.2 21.5-22.5 54.3-14 73.3 19 19 32.9 16.9 77.7-4.7 100.2z"/><path class="c" d="m1241.2 2079.8c-21.6 22.5-54.4 14-73.4-18.9-19-33-16.9-77.8 4.7-100.3 21.5-22.4 54.3-14 73.3 19 19 33 16.9 77.8-4.6 100.2z"/><path class="c" d="m1218.9 2008.3c-21.6 22.5-54.4 14-73.3-18.9-19-33-17-77.8 4.6-100.3 21.6-22.5 54.4-14 73.4 19 19 33 16.9 77.8-4.7 100.2z"/><path class="c" d="m1231.4 2000.6c21.1-23.3 53.9-15.9 73.3 16.5 19.5 32.5 18.2 77.5-2.8 100.8-21.1 23.4-53.9 16-73.4-16.5-19.5-32.4-18.2-77.5 2.9-100.8z"/><path class="c" d="m1228.9 1982.1c21.1-23.3 53.9-15.9 73.3 16.5 19.5 32.4 18.2 77.5-2.8 100.8-21.1 23.3-53.9 16-73.4-16.5-19.5-32.4-18.2-77.5 2.9-100.8z"/><path class="c" d="m1228.9 1982.1c21.1-23.3 53.9-15.9 73.3 16.5 19.5 32.4 18.2 77.5-2.8 100.8-21.1 23.3-53.9 16-73.4-16.5-19.5-32.4-18.2-77.5 2.9-100.8z"/><path class="c" d="m1228.9 1982.1c21.1-23.3 53.9-15.9 73.3 16.5 19.5 32.4 18.2 77.5-2.8 100.8-21.1 23.3-53.9 16-73.4-16.5-19.5-32.4-18.2-77.5 2.9-100.8z"/><path class="c" d="m1213.1 1869.9c21.1-23.3 53.9-16 73.4 16.5 19.4 32.4 18.2 77.5-2.9 100.8-21.1 23.3-53.9 15.9-73.4-16.5-19.4-32.4-18.2-77.5 2.9-100.8z"/><path class="c" d="m1252.6 1884.6c21.1-23.3 53.9-15.9 73.3 16.5 19.5 32.5 18.2 77.5-2.8 100.8-21.1 23.4-53.9 16-73.4-16.4-19.5-32.5-18.2-77.5 2.9-100.9z"/><path class="c" d="m1276 1955.7c21.1-23.4 53.9-16 73.3 16.4 19.5 32.5 18.2 77.5-2.8 100.9-21.1 23.3-53.9 15.9-73.4-16.5-19.5-32.5-18.2-77.5 2.9-100.8z"/><path class="c" d="m1233.4 1942.3c-21.6 22.5-54.4 14-73.4-18.9-19-33-16.9-77.8 4.7-100.3 21.6-22.4 54.3-14 73.3 19 19 33 16.9 77.8-4.6 100.2z"/><path class="c" d="m1235.5 1960.9c-21.5 22.4-54.3 13.9-73.3-19-19-33-16.9-77.8 4.7-100.3 21.5-22.4 54.3-14 73.3 19 19 33 16.9 77.8-4.7 100.3z"/><path class="c" d="m1249.4 2073.1c-21.6 22.5-54.3 14-73.3-19-19-32.9-16.9-77.7 4.6-100.2 21.6-22.5 54.4-14 73.4 19 19 32.9 16.9 77.7-4.7 100.2z"/><path class="c" d="m1210 2057c-21.5 22.5-54.3 14-73.3-18.9-19-33-16.9-77.8 4.6-100.3 21.6-22.4 54.4-14 73.4 19 19 33 16.9 77.8-4.7 100.2z"/><path class="c" d="m1187.8 1985.5c-21.6 22.5-54.4 14-73.4-18.9-19-33-16.9-77.8 4.7-100.3 21.6-22.4 54.4-14 73.4 19 18.9 33 16.9 77.8-4.7 100.2z"/><path class="c" d="m1200.3 1977.8c21-23.3 53.8-15.9 73.3 16.5 19.5 32.5 18.2 77.5-2.9 100.8-21 23.4-53.8 16-73.3-16.5-19.5-32.4-18.2-77.5 2.9-100.8z"/><path class="c" d="m1197.8 1959.3c21.1-23.3 53.8-15.9 73.3 16.5 19.5 32.5 18.2 77.5-2.8 100.8-21.1 23.4-53.9 16-73.4-16.5-19.5-32.4-18.2-77.5 2.9-100.8z"/><path class="c" d="m1197.8 1959.3c21.1-23.3 53.8-15.9 73.3 16.5 19.5 32.5 18.2 77.5-2.8 100.8-21.1 23.4-53.9 16-73.4-16.5-19.5-32.4-18.2-77.5 2.9-100.8z"/><path class="c" d="m1197.8 1959.3c21.1-23.3 53.8-15.9 73.3 16.5 19.5 32.5 18.2 77.5-2.8 100.8-21.1 23.4-53.9 16-73.4-16.5-19.5-32.4-18.2-77.5 2.9-100.8z"/><path class="c" d="m1182 1847.1c21.1-23.3 53.8-16 73.3 16.5 19.5 32.4 18.2 77.5-2.8 100.8-21.1 23.3-53.9 15.9-73.4-16.5-19.5-32.4-18.2-77.5 2.9-100.8z"/><path class="c" d="m1221.5 1861.8c21-23.3 53.8-15.9 73.3 16.5 19.5 32.5 18.2 77.5-2.9 100.8-21 23.4-53.8 16-73.3-16.4-19.5-32.5-18.2-77.5 2.9-100.9z"/><path class="c" d="m1244.9 1932.9c21.1-23.4 53.8-16 73.3 16.4 19.5 32.5 18.2 77.5-2.8 100.9-21.1 23.3-53.9 15.9-73.4-16.5-19.5-32.5-18.2-77.5 2.9-100.8z"/><path class="c" d="m1354.9 2131.5c-21.6 22.4-54.4 14-73.3-19-19-33-17-77.8 4.6-100.3 21.6-22.4 54.4-13.9 73.4 19 19 33 16.9 77.8-4.7 100.3z"/><path class="c" d="m1357.1 2150c-21.6 22.4-54.4 14-73.4-19-19-33-16.9-77.8 4.7-100.3 21.6-22.4 54.3-13.9 73.3 19 19 33 16.9 77.8-4.6 100.3z"/><path class="c" d="m1371 2262.2c-21.6 22.5-54.4 14-73.4-18.9-19-33-16.9-77.8 4.7-100.3 21.5-22.5 54.3-14 73.3 19 19 32.9 16.9 77.8-4.6 100.2z"/><path class="c" d="m1331.6 2246.2c-21.6 22.4-54.4 14-73.4-19-19-33-16.9-77.8 4.7-100.3 21.6-22.4 54.3-13.9 73.3 19 19 33 16.9 77.8-4.6 100.3z"/><path class="c" d="m1309.3 2174.7c-21.6 22.4-54.3 13.9-73.3-19-19-33-16.9-77.8 4.6-100.3 21.6-22.4 54.4-14 73.4 19 19 33 16.9 77.8-4.7 100.3z"/><path class="c" d="m1303.5 2036.2c21.1-23.3 53.9-15.9 73.4 16.5 19.4 32.4 18.2 77.5-2.9 100.8-21.1 23.3-53.9 16-73.4-16.5-19.4-32.4-18.2-77.5 2.9-100.8z"/><path class="c" d="m1343.1 1987.4c-21.5 22.4-54.3 14-73.3-19-19-33-16.9-77.8 4.7-100.3 21.5-22.4 54.3-13.9 73.3 19 19 33 16.9 77.8-4.7 100.3z"/><path class="c" d="m1345.3 2005.9c-21.6 22.4-54.3 14-73.3-19-19-33-16.9-77.8 4.6-100.2 21.6-22.5 54.4-14 73.4 18.9 19 33 16.9 77.8-4.7 100.3z"/><path class="c" d="m1359.2 2118.1c-21.6 22.5-54.4 14-73.4-18.9-18.9-33-16.9-77.8 4.7-100.3 21.6-22.5 54.4-14 73.4 19 19 33 16.9 77.8-4.7 100.2z"/><path class="c" d="m1319.8 2102.1c-21.6 22.4-54.4 14-73.3-19-19-33-17-77.8 4.6-100.3 21.6-22.4 54.4-13.9 73.4 19 19 33 16.9 77.8-4.7 100.3z"/><path class="c" d="m1297.6 2030.6c-21.6 22.4-54.4 14-73.4-19-19-33-16.9-77.8 4.7-100.3 21.5-22.4 54.3-13.9 73.3 19 19 33 16.9 77.8-4.6 100.3z"/><path class="c" d="m1310 2022.8c21.1-23.3 53.9-15.9 73.4 16.5 19.5 32.5 18.2 77.5-2.9 100.9-21.1 23.3-53.8 15.9-73.3-16.5-19.5-32.5-18.2-77.5 2.8-100.9z"/><path class="c" d="m1307.6 2004.3c21-23.3 53.8-15.9 73.3 16.5 19.5 32.5 18.2 77.5-2.9 100.9-21.1 23.3-53.8 15.9-73.3-16.5-19.5-32.5-18.2-77.5 2.9-100.9z"/><path class="c" d="m1307.6 2004.3c21-23.3 53.8-15.9 73.3 16.5 19.5 32.5 18.2 77.5-2.9 100.9-21.1 23.3-53.8 15.9-73.3-16.5-19.5-32.5-18.2-77.5 2.9-100.9z"/><path class="c" d="m1307.6 2004.3c21-23.3 53.8-15.9 73.3 16.5 19.5 32.5 18.2 77.5-2.9 100.9-21.1 23.3-53.8 15.9-73.3-16.5-19.5-32.5-18.2-77.5 2.9-100.9z"/><path class="c" d="m1291.8 1892.1c21-23.3 53.8-15.9 73.3 16.5 19.5 32.4 18.2 77.5-2.9 100.8-21 23.3-53.8 16-73.3-16.5-19.5-32.4-18.2-77.5 2.9-100.8z"/><path class="c" d="m1293.4 2147.3c-21.6 22.4-54.3 13.9-73.3-19-19-33-16.9-77.8 4.6-100.3 21.6-22.4 54.4-14 73.4 19 19 33 16.9 77.8-4.7 100.3z"/><path class="c" d="m1295.6 2165.8c-21.6 22.4-54.4 14-73.4-19-18.9-33-16.9-77.8 4.7-100.3 21.6-22.4 54.4-13.9 73.4 19 19 33 16.9 77.8-4.7 100.3z"/><path class="c" d="m1309.5 2278c-21.6 22.5-54.4 14-73.4-18.9-19-33-16.9-77.8 4.7-100.3 21.6-22.5 54.3-14 73.3 19 19 32.9 16.9 77.8-4.6 100.2z"/><path class="c" d="m1270.1 2262c-21.6 22.4-54.4 14-73.4-19-19-33-16.9-77.8 4.7-100.3 21.6-22.4 54.4-13.9 73.4 19 18.9 33 16.9 77.8-4.7 100.3z"/><path class="c" d="m1247.8 2190.5c-21.5 22.4-54.3 13.9-73.3-19-19-33-16.9-77.8 4.6-100.3 21.6-22.4 54.4-14 73.4 19 19 33 16.9 77.8-4.7 100.3z"/><path class="c" d="m1260.3 2182.7c21.1-23.3 53.9-15.9 73.4 16.5 19.4 32.5 18.2 77.5-2.9 100.9-21.1 23.3-53.9 15.9-73.4-16.5-19.4-32.5-18.2-77.5 2.9-100.9z"/><path class="c" d="m1257.8 2164.2c21.1-23.3 53.9-15.9 73.4 16.5 19.5 32.5 18.2 77.5-2.9 100.8-21.1 23.4-53.9 16-73.3-16.4-19.5-32.5-18.2-77.5 2.8-100.9z"/><path class="c" d="m1257.8 2164.2c21.1-23.3 53.9-15.9 73.4 16.5 19.5 32.5 18.2 77.5-2.9 100.8-21.1 23.4-53.9 16-73.3-16.4-19.5-32.5-18.2-77.5 2.8-100.9z"/><path class="c" d="m1257.8 2164.2c21.1-23.3 53.9-15.9 73.4 16.5 19.5 32.5 18.2 77.5-2.9 100.8-21.1 23.4-53.9 16-73.3-16.4-19.5-32.5-18.2-77.5 2.8-100.9z"/><path class="c" d="m1242 2052c21.1-23.3 53.9-15.9 73.4 16.5 19.5 32.4 18.2 77.5-2.9 100.8-21.1 23.3-53.9 16-73.3-16.5-19.5-32.4-18.2-77.5 2.8-100.8z"/><path class="c" d="m1281.5 2066.8c21.1-23.4 53.9-16 73.4 16.4 19.5 32.5 18.2 77.5-2.9 100.9-21.1 23.3-53.9 15.9-73.3-16.5-19.5-32.5-18.2-77.5 2.8-100.8z"/><path class="c" d="m1304.9 2137.8c21.1-23.3 53.9-16 73.4 16.5 19.5 32.4 18.2 77.5-2.9 100.8-21.1 23.3-53.9 15.9-73.3-16.5-19.5-32.4-18.2-77.5 2.8-100.8z"/><path class="c" d="m1324.1 2076.2c-21.6 22.5-54.4 14-73.4-19-19-33-16.9-77.8 4.7-100.2 21.6-22.5 54.3-14 73.3 18.9 19 33 16.9 77.8-4.6 100.3z"/><path class="c" d="m1326.2 2094.7c-21.5 22.5-54.3 14-73.3-19-19-32.9-16.9-77.8 4.7-100.2 21.5-22.5 54.3-14 73.3 19 19 32.9 16.9 77.7-4.7 100.2z"/><path class="c" d="m1340.1 2207c-21.6 22.4-54.3 13.9-73.3-19-19-33-16.9-77.8 4.6-100.3 21.6-22.4 54.4-14 73.4 19 19 33 16.9 77.8-4.7 100.3z"/><path class="c" d="m1300.7 2190.9c-21.5 22.5-54.3 14-73.3-19-19-32.9-16.9-77.8 4.6-100.2 21.6-22.5 54.4-14 73.4 19 19 32.9 16.9 77.7-4.7 100.2z"/><path class="c" d="m1278.5 2119.4c-21.6 22.5-54.4 14-73.4-19-19-33-16.9-77.8 4.7-100.2 21.6-22.5 54.4-14 73.4 18.9 18.9 33 16.9 77.8-4.7 100.3z"/><path class="c" d="m1291 2111.7c21-23.3 53.8-16 73.3 16.5 19.5 32.4 18.2 77.5-2.9 100.8-21 23.3-53.8 15.9-73.3-16.5-19.5-32.4-18.2-77.5 2.9-100.8z"/><path class="c" d="m1288.5 2093.2c21.1-23.3 53.8-16 73.3 16.5 19.5 32.4 18.2 77.5-2.8 100.8-21.1 23.3-53.9 15.9-73.4-16.5-19.5-32.4-18.2-77.5 2.9-100.8z"/><path class="c" d="m1288.5 2093.2c21.1-23.3 53.8-16 73.3 16.5 19.5 32.4 18.2 77.5-2.8 100.8-21.1 23.3-53.9 15.9-73.4-16.5-19.5-32.4-18.2-77.5 2.9-100.8z"/><path class="c" d="m1288.5 2093.2c21.1-23.3 53.8-16 73.3 16.5 19.5 32.4 18.2 77.5-2.8 100.8-21.1 23.3-53.9 15.9-73.4-16.5-19.5-32.4-18.2-77.5 2.9-100.8z"/><path class="c" d="m1272.7 1980.9c21.1-23.3 53.8-15.9 73.3 16.5 19.5 32.5 18.2 77.5-2.8 100.8-21.1 23.4-53.9 16-73.4-16.4-19.5-32.5-18.2-77.5 2.9-100.9z"/><path class="c" d="m1312.2 1995.7c21-23.3 53.8-16 73.3 16.5 19.5 32.4 18.2 77.5-2.9 100.8-21 23.3-53.8 15.9-73.3-16.5-19.5-32.4-18.2-77.5 2.9-100.8z"/><path class="c" d="m1279.7 1829.7c-21.5 22.5-54.3 14-73.3-19-19-32.9-16.9-77.7 4.7-100.2 21.5-22.5 54.3-14 73.3 19 19 32.9 16.9 77.7-4.7 100.2z"/><path class="c" d="m1281.9 1848.2c-21.6 22.5-54.3 14-73.3-19-19-32.9-16.9-77.7 4.6-100.2 21.6-22.5 54.4-14 73.4 19 19 32.9 16.9 77.7-4.7 100.2z"/><path class="c" d="m1295.8 1960.5c-21.6 22.4-54.4 14-73.4-19-18.9-33-16.9-77.8 4.7-100.3 21.6-22.4 54.4-13.9 73.4 19 19 33 16.9 77.8-4.7 100.3z"/><path class="c" d="m1256.4 1944.4c-21.6 22.5-54.4 14-73.3-19-19-32.9-17-77.7 4.6-100.2 21.6-22.5 54.4-14 73.4 19 19 32.9 16.9 77.7-4.7 100.2z"/><path class="c" d="m1234.2 1872.9c-21.6 22.5-54.4 14-73.4-19-19-32.9-16.9-77.8 4.7-100.2 21.5-22.5 54.3-14 73.3 19 19 32.9 16.9 77.7-4.6 100.2z"/><path class="c" d="m1246.6 1865.2c21.1-23.3 53.9-16 73.4 16.5 19.5 32.4 18.2 77.5-2.9 100.8-21.1 23.3-53.8 15.9-73.3-16.5-19.5-32.4-18.2-77.5 2.8-100.8z"/><path class="c" d="m1244.2 1846.7c21-23.3 53.8-16 73.3 16.5 19.5 32.4 18.2 77.5-2.9 100.8-21.1 23.3-53.8 15.9-73.3-16.5-19.5-32.4-18.2-77.5 2.9-100.8z"/><path class="c" d="m1244.2 1846.7c21-23.3 53.8-16 73.3 16.5 19.5 32.4 18.2 77.5-2.9 100.8-21.1 23.3-53.8 15.9-73.3-16.5-19.5-32.4-18.2-77.5 2.9-100.8z"/><path class="c" d="m1244.2 1846.7c21-23.3 53.8-16 73.3 16.5 19.5 32.4 18.2 77.5-2.9 100.8-21.1 23.3-53.8 15.9-73.3-16.5-19.5-32.4-18.2-77.5 2.9-100.8z"/><path class="c" d="m1228.4 1734.4c21-23.3 53.8-15.9 73.3 16.5 19.5 32.5 18.2 77.5-2.9 100.9-21.1 23.3-53.8 15.9-73.3-16.5-19.5-32.5-18.2-77.5 2.9-100.9z"/><path class="c" d="m1267.8 1749.2c21.1-23.3 53.9-15.9 73.4 16.5 19.5 32.4 18.2 77.5-2.9 100.8-21.1 23.3-53.8 16-73.3-16.5-19.5-32.4-18.2-77.5 2.8-100.8z"/><path class="c" d="m1291.3 1820.2c21-23.3 53.8-15.9 73.3 16.5 19.5 32.4 18.2 77.5-2.9 100.8-21.1 23.3-53.8 16-73.3-16.5-19.5-32.4-18.2-77.5 2.9-100.8z"/></g></svg>